#N canvas 1318 253 309 224 12;
#X obj 53 31 inlet t;
#X obj 135 41 inlet~ sig;
#X obj 101 115 *~;
#X obj 53 55 sig~ 0;
#X obj 101 139 outlet~;
#X obj 53 79 lop~ 1;
#X connect 0 0 3 0;
#X connect 1 0 2 0;
#X connect 2 0 4 0;
#X connect 3 0 5 0;
#X connect 5 0 2 1;
