#N canvas 1078 377 568 834 12;
#X obj 164 52 inlet;
#X obj 164 77 t b a;
#X obj 217 120 unpack f f f;
#X obj 256 174 s \$0-mypitch;
#X obj 298 151 s \$0-mydur;
#X obj 215 199 s \$0-mystart;
#X obj 165 267 f;
#X obj 183 239 r graindur;
#X text 33 14 A real-time grain generator (Figure 21.5 \, p.310 \,
Farnell 2010), f 63;
#X obj 165 326 * 1;
#X obj 182 301 r \$0-mydur;
#X obj 165 350 t f f;
#X msg 268 402 0 \, 1 \$1 0;
#X obj 164 488 / 1000;
#X obj 268 426 vline~;
#X obj 268 460 *~;
#X obj 304 458 r grainpitch;
#X obj 306 499 r \$0-mypitch;
#X obj 268 500 *~;
#X obj 164 512 sig~;
#X obj 250 557 *~;
#X obj 55 525 *~ 2048;
#X obj 55 549 tabread4~ grain-env;
#X obj 250 602 +~;
#X obj 288 603 r grainstart;
#X obj 290 650 r \$0-mystart;
#X obj 250 651 +~;
#X obj 250 692 tabread4~ source-array;
#X obj 232 736 *~;
#X obj 232 760 throw~ bus;
#X connect 0 0 1 0;
#X connect 1 0 6 0;
#X connect 1 1 2 0;
#X connect 2 0 5 0;
#X connect 2 1 3 0;
#X connect 2 2 4 0;
#X connect 6 0 9 0;
#X connect 7 0 6 1;
#X connect 9 0 11 0;
#X connect 10 0 9 1;
#X connect 11 0 13 0;
#X connect 11 1 12 0;
#X connect 12 0 14 0;
#X connect 13 0 19 0;
#X connect 14 0 15 0;
#X connect 14 0 21 0;
#X connect 15 0 18 0;
#X connect 16 0 15 1;
#X connect 17 0 18 1;
#X connect 18 0 20 1;
#X connect 19 0 20 0;
#X connect 20 0 23 0;
#X connect 21 0 22 0;
#X connect 22 0 28 0;
#X connect 23 0 26 0;
#X connect 24 0 23 1;
#X connect 25 0 26 1;
#X connect 26 0 27 0;
#X connect 27 0 28 1;
#X connect 28 0 29 0;
