#N canvas 714 261 450 300 12;
#X obj 138 15 inlet;
#X obj 220 155 spigot;
#X floatatom 220 180 5 0 0 0 - - - 0;
#X obj 249 117 <;
#X obj 214 82 t f f;
#X obj 139 48 route clear;
#X msg 150 130 0;
#X obj 220 204 t f f;
#X obj 220 255 outlet;
#X text 12 237 adapted from Bela examples.;
#X connect 0 0 5 0;
#X connect 1 0 2 0;
#X connect 2 0 7 0;
#X connect 3 0 1 1;
#X connect 4 0 1 0;
#X connect 4 1 3 0;
#X connect 5 0 6 0;
#X connect 5 1 4 0;
#X connect 6 0 2 0;
#X connect 7 0 8 0;
#X connect 7 1 3 1;
