#N canvas 807 374 422 303 12;
#X obj 40 262 outlet;
#X floatatom 39 84 5 0 0 0 - - - 0;
#X floatatom 39 207 5 0 0 0 - - - 0;
#X obj 39 176 expr $f4 + ($f1 - $f2) * ($f5 - $f4) / ($f3 - $f2 );
#X obj 120 26 inlet min;
#X obj 195 26 inlet max;
#X obj 39 25 inlet main;
#X text 146 67 input min;
#X text 151 90 input max;
#X text 156 130 output min;
#X text 188 147 output max;
#X obj 40 138 pack 0 0 0 0 1;
#X floatatom 98 65 5 0 0 0 - - - 0;
#X floatatom 109 91 5 0 0 0 - - - 0;
#X connect 1 0 11 0;
#X connect 2 0 0 0;
#X connect 3 0 2 0;
#X connect 4 0 12 0;
#X connect 5 0 13 0;
#X connect 6 0 1 0;
#X connect 11 0 3 0;
#X connect 12 0 11 1;
#X connect 13 0 11 2;
