#N canvas 831 55 897 962 12;
#X obj 42 151 vsl 15 128 50 5000 0 0 empty empty empty 0 -9 0 10 #fcfcfc
#000000 #000000 0 1;
#X obj 45 432 +~;
#X obj 77 350 *~;
#X obj 122 208 nbx 5 14 -1e+37 1e+37 0 0 empty empty empty 0 -8 0 10
#fcfcfc #000000 #000000 0 256;
#X obj 122 235 osc~;
#X obj 179 332 nbx 5 14 -1e+37 1e+37 0 0 empty empty empty 0 -8 0 10
#fcfcfc #000000 #000000 0 256;
#X obj 44 499 osc~;
#X obj 50 44 r fA;
#X obj 50 73 scale 0 1 0 127;
#X obj 180 278 abs;
#X obj 171 138 abs;
#X obj 128 357 vsl 15 128 0 1 0 0 empty empty empty 0 -9 0 10 #fcfcfc
#000000 #000000 0 1;
#X obj 44 576 *~;
#X obj 165 371 r fB;
#X obj 171 98 r smoothX;
#X obj 179 246 r smoothY;
#X obj 279 377 r smoothZ;
#X obj 283 412 abs;
#X obj 170 165 scale 0 25 0 100;
#X obj 179 306 scale 0 25 0 2000;
#X obj 31 683 throw~ left;
#X obj 132 691 throw~ right;
#X obj 95 501 pack 0 50;
#X obj 95 525 line~;
#X obj 39 330 sig~;
#X obj 282 439 scale 0 25 20 500;
#X connect 0 0 24 0;
#X connect 1 0 6 0;
#X connect 2 0 1 1;
#X connect 3 0 4 0;
#X connect 4 0 2 0;
#X connect 5 0 2 1;
#X connect 6 0 12 0;
#X connect 7 0 8 0;
#X connect 9 0 19 0;
#X connect 10 0 18 0;
#X connect 11 0 22 0;
#X connect 12 0 20 0;
#X connect 12 0 21 0;
#X connect 13 0 11 0;
#X connect 14 0 10 0;
#X connect 15 0 9 0;
#X connect 16 0 17 0;
#X connect 17 0 25 0;
#X connect 18 0 3 0;
#X connect 19 0 5 0;
#X connect 22 0 23 0;
#X connect 23 0 12 1;
#X connect 24 0 1 0;
#X connect 25 0 0 0;
