#N canvas 18 38 770 556 12;
#X msg 551 365 \; pd dsp \$1;
#X obj 554 342 tgl 15 0 empty empty empty 17 7 0 10 #fcfcfc #000000
#000000 0 1;
#N canvas 1065 606 720 210 r~ 0;
#X obj 28 164 dac~, f 17;
#X obj 28 21 catch~ left;
#X obj 144 23 catch~ right;
#X text 283 94 FDN-reverb \, check "EXTRA" in List of objects from
Help menu.;
#X obj 199 94 rev3~ 95 55;
#X connect 1 0 0 0;
#X connect 1 0 4 0;
#X connect 2 0 0 1;
#X connect 2 0 4 1;
#X connect 4 0 0 0;
#X connect 4 1 0 1;
#X restore 581 341 pd r~;
#X text 198 161 -----------------------------------------------------------
;
#X text 198 179 -----------------------------------------------------------
;
#N canvas 208 246 497 291 groupWork 0;
#X text 208 129 Your turn!;
#X restore 107 170 pd groupWork;
#X text 530 412 MCT4001 Pd Session 9 24 October 2022, f 20;
#X text 79 171 2);
#X text 81 231 3) Discussion;
#X text 82 114 1);
#N canvas 382 39 450 300 live_code 0;
#X restore 106 114 pd live_code;
#X connect 1 0 0 0;
