#N canvas 0 79 1315 639 12;
#X floatatom 29 172 5 0 0 0 - - - 0;
#X obj 76 231 * 2;
#X obj 136 231 * 3;
#X obj 196 231 * 4;
#X obj 256 231 * 5;
#X obj 313 232 * 6;
#X obj 366 232 * 7;
#X obj 422 231 * 8;
#X floatatom 76 255 5 0 0 0 - - - 0;
#X floatatom 136 255 5 0 0 0 - - - 0;
#X floatatom 196 255 5 0 0 0 - - - 0;
#X floatatom 256 255 5 0 0 0 - - - 0;
#X floatatom 313 256 5 0 0 0 - - - 0;
#X floatatom 366 256 5 0 0 0 - - - 0;
#X floatatom 422 255 5 0 0 0 - - - 0;
#X obj 76 278 osc~;
#X obj 29 278 osc~;
#X obj 136 278 osc~;
#X obj 196 278 osc~;
#X obj 256 278 osc~;
#X obj 313 279 osc~;
#X obj 366 279 osc~;
#X obj 422 278 osc~;
#X obj 521 90 vsl 15 128 0 127 0 0 empty empty empty 0 -9 0 10 #fcfcfc
#000000 #000000 0 1;
#X obj 521 229 / 127;
#X floatatom 521 252 5 0 0 0 - - - 0;
#X obj 521 280 sig~;
#X obj 579 91 vsl 15 128 0 127 0 0 empty empty empty 0 -9 0 10 #fcfcfc
#000000 #000000 0 1;
#X obj 579 230 / 127;
#X floatatom 579 253 5 0 0 0 - - - 0;
#X obj 579 281 sig~;
#X obj 636 89 vsl 15 128 0 127 0 0 empty empty empty 0 -9 0 10 #fcfcfc
#000000 #000000 0 1;
#X obj 636 228 / 127;
#X floatatom 636 251 5 0 0 0 - - - 0;
#X obj 636 279 sig~;
#X obj 694 90 vsl 15 128 0 127 0 0 empty empty empty 0 -9 0 10 #fcfcfc
#000000 #000000 0 1;
#X obj 694 229 / 127;
#X floatatom 694 252 5 0 0 0 - - - 0;
#X obj 694 280 sig~;
#X obj 754 92 vsl 15 128 0 127 0 0 empty empty empty 0 -9 0 10 #fcfcfc
#000000 #000000 0 1;
#X obj 754 231 / 127;
#X floatatom 754 254 5 0 0 0 - - - 0;
#X obj 754 282 sig~;
#X obj 812 93 vsl 15 128 0 127 0 0 empty empty empty 0 -9 0 10 #fcfcfc
#000000 #000000 0 1;
#X obj 812 232 / 127;
#X floatatom 812 255 5 0 0 0 - - - 0;
#X obj 812 283 sig~;
#X obj 869 91 vsl 15 128 0 127 0 0 empty empty empty 0 -9 0 10 #fcfcfc
#000000 #000000 0 1;
#X obj 869 230 / 127;
#X floatatom 869 253 5 0 0 0 - - - 0;
#X obj 869 281 sig~;
#X obj 927 92 vsl 15 128 0 127 0 0 empty empty empty 0 -9 0 10 #fcfcfc
#000000 #000000 0 1;
#X obj 927 231 / 127;
#X floatatom 927 254 5 0 0 0 - - - 0;
#X obj 927 282 sig~;
#X obj 422 358 *~;
#X obj 366 359 *~;
#X obj 313 359 *~;
#X obj 256 358 *~;
#X obj 196 358 *~;
#X obj 136 358 *~;
#X obj 76 358 *~;
#X obj 29 358 *~;
#X obj 84 64 r key_fq;
#X obj 28 33 inlet in_on-off;
#X obj 56 102 gate;
#X text 75 173 Fundamental FQ;
#X obj 36 558 outlet~;
#X obj 100 474 / 127;
#X obj 100 498 sig~;
#X obj 37 530 *~;
#X obj 346 473 tgl 15 0 empty empty empty 17 7 0 10 #fcfcfc #000000
#000000 0 1;
#X obj 346 493 metro 50;
#X obj 224 565 tabwrite~ addViz;
#X obj 224 533 *~ 0.6;
#X floatatom 265 501 5 0 0 0 - - - 0;
#X obj 230 443 inlet volume2;
#X obj 346 449 inlet viz2;
#X obj 27 425 *~ 0.8;
#X connect 0 0 1 0;
#X connect 0 0 2 0;
#X connect 0 0 3 0;
#X connect 0 0 4 0;
#X connect 0 0 5 1;
#X connect 0 0 6 0;
#X connect 0 0 7 0;
#X connect 0 0 16 0;
#X connect 1 0 8 0;
#X connect 2 0 9 0;
#X connect 3 0 10 0;
#X connect 4 0 11 0;
#X connect 5 0 12 0;
#X connect 6 0 13 0;
#X connect 7 0 14 0;
#X connect 8 0 15 0;
#X connect 9 0 17 0;
#X connect 10 0 18 0;
#X connect 11 0 19 0;
#X connect 12 0 20 0;
#X connect 13 0 21 0;
#X connect 14 0 22 0;
#X connect 15 0 61 0;
#X connect 16 0 62 0;
#X connect 17 0 60 0;
#X connect 18 0 59 0;
#X connect 19 0 58 0;
#X connect 20 0 57 0;
#X connect 21 0 56 0;
#X connect 22 0 55 0;
#X connect 23 0 24 0;
#X connect 24 0 25 0;
#X connect 25 0 26 0;
#X connect 26 0 62 1;
#X connect 27 0 28 0;
#X connect 28 0 29 0;
#X connect 29 0 30 0;
#X connect 30 0 61 1;
#X connect 31 0 32 0;
#X connect 32 0 33 0;
#X connect 33 0 34 0;
#X connect 34 0 60 1;
#X connect 35 0 36 0;
#X connect 36 0 37 0;
#X connect 37 0 38 0;
#X connect 38 0 59 1;
#X connect 39 0 40 0;
#X connect 40 0 41 0;
#X connect 41 0 42 0;
#X connect 42 0 58 1;
#X connect 43 0 44 0;
#X connect 44 0 45 0;
#X connect 45 0 46 0;
#X connect 46 0 57 1;
#X connect 47 0 48 0;
#X connect 48 0 49 0;
#X connect 49 0 50 0;
#X connect 50 0 56 1;
#X connect 51 0 52 0;
#X connect 52 0 53 0;
#X connect 53 0 54 0;
#X connect 54 0 55 1;
#X connect 55 0 78 0;
#X connect 56 0 78 0;
#X connect 57 0 78 0;
#X connect 58 0 78 0;
#X connect 59 0 78 0;
#X connect 60 0 78 0;
#X connect 61 0 78 0;
#X connect 62 0 78 0;
#X connect 63 0 65 0;
#X connect 64 0 65 1;
#X connect 64 0 69 0;
#X connect 65 0 0 0;
#X connect 68 0 69 0;
#X connect 69 0 70 1;
#X connect 70 0 67 0;
#X connect 71 0 72 0;
#X connect 72 0 73 0;
#X connect 74 0 73 0;
#X connect 75 0 74 1;
#X connect 76 0 68 0;
#X connect 77 0 71 0;
#X connect 78 0 74 0;
#X connect 78 0 70 0;
