#N canvas 553 23 653 635 12;
#X obj 50 281 osc~ 500;
#X obj 52 336 *~ 0.3;
#X obj 136 69 loadbang;
#X msg 32 210 \; pd quit;
#X obj 142 411 writesf~;
#X msg 199 129 start;
#X msg 115 169 stop;
#X msg 259 121 \; pd dsp 1;
#X msg 358 116 open out.wav;
#X obj 105 131 delay 5000;
#X connect 0 0 1 0;
#X connect 1 0 4 0;
#X connect 2 0 7 0;
#X connect 2 0 8 0;
#X connect 2 0 5 0;
#X connect 2 0 9 0;
#X connect 5 0 4 0;
#X connect 6 0 4 0;
#X connect 6 0 3 0;
#X connect 8 0 4 0;
#X connect 9 0 6 0;
