#N canvas 194 23 641 769 12;
#X obj 31 119 oscparse;
#X text 23 21 OSC SERVER;
#X text 196 66 receiving from Python;
#X text 102 118 parsing from binary to list;
#X obj 29 67 netreceive -u -b 8002;
#X obj 31 168 print received;
#X text 113 21 it prints all messages received on port 8002;
#X connect 0 0 5 0;
#X connect 4 0 0 0;
