#N canvas 158 208 653 635 12;
#X obj 89 422 *~ 0.3;
#X obj 170 19 loadbang;
#X msg 68 284 \; pd quit;
#X obj 179 497 writesf~;
#X msg 234 174 start;
#X msg 150 214 stop;
#X msg 294 166 \; pd dsp 1;
#X obj 140 176 delay 5000;
#X obj 87 337 receive freqV;
#X obj 87 367 osc~ 0;
#X obj 189 129 receive durV;
#X obj 402 74 receive nameV;
#X obj 402 107 list prepend open;
#X obj 402 139 list trim;
#X obj 224 69 delay 1;
#X connect 0 0 3 0;
#X connect 1 0 14 0;
#X connect 4 0 3 0;
#X connect 5 0 3 0;
#X connect 5 0 2 0;
#X connect 7 0 5 0;
#X connect 8 0 9 0;
#X connect 9 0 0 0;
#X connect 10 0 7 1;
#X connect 11 0 12 0;
#X connect 12 0 13 0;
#X connect 13 0 3 0;
#X connect 14 0 6 0;
#X connect 14 0 4 0;
#X connect 14 0 7 0;
