#N canvas 100 23 1098 715 12;
#X floatatom 610 22 5 0 0 0 - - -;
#X floatatom 726 23 5 0 0 0 Cold_value - -;
#X obj 610 52 + 10;
#X floatatom 610 91 5 0 0 0 - - -;
#X text 653 53 control signal +;
#X obj 49 463 pack f f f;
#X floatatom 49 421 5 0 0 0 - num1 -;
#X floatatom 91 422 5 0 0 0 - num2 -;
#X floatatom 131 422 5 0 0 0 - - -;
#X obj 49 488 send values;
#N canvas 0 23 592 406 synthLogic 0;
#X obj 29 104 route vca vcf vco;
#X floatatom 28 137 5 0 0 0 - - -;
#X floatatom 76 137 5 0 0 0 - - -;
#X floatatom 121 137 5 0 0 0 - - -;
#X msg 93 75 vcf \$1;
#X msg 29 75 vca \$1;
#X msg 153 75 vco \$1;
#X obj 28 46 unpack f f f;
#X obj 28 23 receive values;
#X connect 0 0 1 0;
#X connect 0 1 2 0;
#X connect 0 2 3 0;
#X connect 4 0 0 0;
#X connect 5 0 0 0;
#X connect 6 0 0 0;
#X connect 7 0 5 0;
#X connect 7 1 4 0;
#X connect 7 2 6 0;
#X connect 8 0 7 0;
#X restore 145 488 pd synthLogic;
#N canvas 325 -942 450 300 example 0;
#X obj 45 19 inlet;
#X obj 45 99 outlet;
#X obj 105 21 inlet;
#X obj 44 62 + 34;
#X connect 0 0 3 0;
#X connect 2 0 3 1;
#X connect 3 0 1 0;
#X restore 81 605 pd example;
#X floatatom 81 581 5 0 0 0 - - -;
#X floatatom 81 634 5 0 0 0 - - -;
#X floatatom 147 581 5 0 0 0 - - -;
#N canvas 288 -1044 450 300 thru 0;
#X obj 78 15 inlet;
#X obj 77 101 outlet;
#X connect 0 0 1 0;
#X restore 96 301 pd thru;
#X obj 458 318 testAbs;
#X text 447 336 abstraction;
#X obj 410 101 vsl 15 128 0 127 0 0 empty slider slider 0 -9 0 10 -262144
-1 -1 6500 1;
#X floatatom 410 237 5 0 0 0 - - -;
#X obj 458 116 loadbang;
#X msg 678 225 \; pd dsp 0;
#N canvas 0 23 524 319 weighted_random 0;
#X obj 48 71 metro 1000;
#X obj 48 47 tgl 15 0 empty empty empty 17 7 0 10 -262144 -1 -1 0 1
;
#X obj 48 94 random 100;
#X obj 48 119 moses 10;
#X floatatom 48 148 5 0 0 0 - - -;
#X floatatom 101 150 5 0 0 0 - - -;
#X floatatom 115 45 5 0 0 0 - - -;
#X obj 99 174 moses 50;
#X floatatom 98 201 5 0 0 0 - - -;
#X floatatom 153 201 5 0 0 0 - - -;
#X text 76 12 weighted random sequencer;
#X text 131 118 Moses splits a number stream by a thershold;
#X text 213 162 Outlet 1: 10% Outlet 2: 40% Outlet 3: 50%;
#X connect 0 0 2 0;
#X connect 1 0 0 0;
#X connect 2 0 3 0;
#X connect 3 0 4 0;
#X connect 3 1 5 0;
#X connect 5 0 7 0;
#X connect 6 0 0 1;
#X connect 7 0 8 0;
#X connect 7 1 9 0;
#X restore 200 183 pd weighted_random;
#X text 545 149 \; (semicolon) broadcasts messages to named objects
;
#X msg 458 143 \; slider 65 \; num1 67 \; num2 43;
#X msg 562 225 \; pd dsp 1;
#X text 558 203 Switch the audio processing on or off;
#N canvas 0 23 484 328 random_sequencer 0;
#X obj 55 51 metro 1000;
#X obj 55 24 tgl 15 0 empty empty empty 17 7 0 10 -262144 -1 -1 0 1
;
#X floatatom 122 26 5 0 0 0 - - -;
#X obj 55 75 random 5;
#X floatatom 55 98 5 0 0 0 - - -;
#X obj 55 120 select 0 1 2 3 4;
#X obj 54 148 bng 15 250 50 0 empty empty empty 17 7 0 10 -262144 -1
-1;
#X obj 76 149 bng 15 250 50 0 empty empty empty 17 7 0 10 -262144 -1
-1;
#X obj 99 150 bng 15 250 50 0 empty empty empty 17 7 0 10 -262144 -1
-1;
#X obj 120 150 bng 15 250 50 0 empty empty empty 17 7 0 10 -262144
-1 -1;
#X obj 142 150 bng 15 250 50 0 empty empty empty 17 7 0 10 -262144
-1 -1;
#X text 121 72 Random sequencer 0-4;
#X obj 172 152 bng 15 250 50 0 empty empty empty 17 7 0 10 -262144
-1 -1;
#X floatatom 151 93 5 0 0 0 - - -;
#X text 189 121 Last outlet is the garbage outlet;
#X connect 0 0 3 0;
#X connect 1 0 0 0;
#X connect 2 0 0 1;
#X connect 3 0 4 0;
#X connect 4 0 5 0;
#X connect 5 0 6 0;
#X connect 5 1 7 0;
#X connect 5 2 8 0;
#X connect 5 3 9 0;
#X connect 5 4 10 0;
#X connect 5 5 12 0;
#X connect 13 0 5 0;
#X restore 200 149 pd random_sequencer;
#N canvas 617 393 561 344 route_example 0;
#X obj 36 88 route hi hello;
#X msg 35 47 hi 45;
#X obj 39 178 print 1;
#X obj 101 181 print 2;
#X obj 169 180 print 3;
#X msg 85 28 hwta 809;
#X msg 105 49 hi 609 \, hello 34 \, what 90;
#X msg 38 126 pitch \$1;
#X text 143 88 routing inputs based on matching value;
#X text 111 126 \$1 is a replaceable argument;
#X connect 0 0 7 0;
#X connect 0 1 3 0;
#X connect 0 2 4 0;
#X connect 1 0 0 0;
#X connect 5 0 0 0;
#X connect 6 0 0 0;
#X connect 7 0 2 0;
#X restore 45 227 pd route_example;
#X text 40 386 The subpatch "pd synthLogic" has the receive of "values"
;
#N canvas 0 23 419 229 cascaded_delays 0;
#X obj 38 18 bng 15 250 50 0 empty empty empty 17 7 0 10 -262144 -1
-1;
#X obj 38 85 bng 15 250 50 0 empty empty empty 17 7 0 10 -262144 -1
-1;
#X obj 110 86 bng 15 250 50 0 empty empty empty 17 7 0 10 -262144 -1
-1;
#X obj 182 86 bng 15 250 50 0 empty empty empty 17 7 0 10 -262144 -1
-1;
#X obj 258 86 bng 15 250 50 0 empty empty empty 17 7 0 10 -262144 -1
-1;
#X obj 110 49 delay 500;
#X obj 183 49 delay 700;
#X obj 38 48 delay 100;
#X text 58 100 Cascaded delays. Outputs bangs;
#X obj 257 49 del 100;
#X connect 0 0 7 0;
#X connect 5 0 2 0;
#X connect 5 0 6 0;
#X connect 6 0 3 0;
#X connect 6 0 9 0;
#X connect 7 0 1 0;
#X connect 7 0 5 0;
#X connect 9 0 4 0;
#X restore 43 185 pd cascaded_delays;
#N canvas 0 23 259 175 toggle_to_select 0;
#X obj 61 26 tgl 15 0 empty empty empty 17 7 0 10 -262144 -1 -1 0 1
;
#X obj 60 75 bng 15 250 50 0 empty empty empty 17 7 0 10 -262144 -1
-1;
#X obj 93 75 bng 15 250 50 0 empty empty empty 17 7 0 10 -262144 -1
-1;
#X obj 61 46 select 0 1;
#X connect 0 0 3 0;
#X connect 3 0 1 0;
#X connect 3 1 2 0;
#X restore 44 144 pd toggle_to_select;
#N canvas 0 23 445 198 pipe 0;
#X obj 75 61 pipe 500;
#X floatatom 75 34 5 0 0 0 - - -;
#X floatatom 75 89 5 0 0 0 - - -;
#X text 144 60 Delays a value by a set time;
#X connect 0 0 2 0;
#X connect 1 0 0 0;
#X restore 157 110 pd pipe;
#N canvas 0 23 450 300 counter 0;
#X obj 43 31 tgl 15 0 empty empty empty 17 7 0 10 -262144 -1 -1 0 1
;
#X obj 43 51 metro 1000;
#X floatatom 110 27 5 0 0 0 - - -;
#X obj 43 79 bng 15 250 50 0 empty empty empty 17 7 0 10 -262144 -1
-1;
#X obj 43 100 f 0;
#X obj 79 100 + 1;
#X floatatom 42 127 5 0 0 0 - - -;
#X msg 78 75 0;
#X text 90 124 Counter. Adds 1 per tick of the clock \, 0 resets the
counter.;
#X connect 0 0 1 0;
#X connect 1 0 3 0;
#X connect 2 0 1 1;
#X connect 3 0 4 0;
#X connect 4 0 5 0;
#X connect 4 0 6 0;
#X connect 5 0 4 1;
#X connect 7 0 4 1;
#X restore 57 104 pd counter;
#N canvas 0 23 450 300 audio_example 0;
#X obj 50 62 osc~;
#X obj 50 95 *~ 0.4;
#X floatatom 49 33 5 0 0 0 - - -;
#X obj 50 134 dac~ 1 2;
#X text 91 62 cosine oscillator;
#X text 95 32 set frequency;
#X text 107 95 Scale the signal;
#X text 121 136 Send to outputs 1 and 2;
#X text 58 179 Note the difference in patch cord thickness. Thin cords
are control signals \, thick cords are audio signals.;
#X connect 0 0 1 0;
#X connect 1 0 3 0;
#X connect 1 0 3 1;
#X connect 2 0 0 0;
#X restore 215 74 pd audio_example;
#X text 39 322 Empty subpatch to gather patch cords;
#N canvas 0 23 275 286 message_ordering 0;
#X obj 35 22 bng 15 250 50 0 empty empty Button_to_trigger 17 7 0 10
-258113 -4160 -1;
#X msg 75 109 23;
#X msg 110 110 54;
#X msg 35 109 500;
#X obj 34 175 print;
#X obj 65 50 bng 15 250 50 0 empty empty empty 17 7 0 10 -262144 -1
-1;
#X obj 66 76 t f f f;
#X text 29 201 Message ordering/trigger;
#X connect 0 0 1 0;
#X connect 0 0 2 0;
#X connect 0 0 3 0;
#X connect 1 0 4 0;
#X connect 2 0 4 0;
#X connect 3 0 4 0;
#X connect 5 0 6 0;
#X connect 6 0 3 0;
#X connect 6 1 1 0;
#X connect 6 2 2 0;
#X restore 53 71 pd message_ordering;
#X text 163 606 Subpatch example;
#N canvas 0 23 374 229 bad_example 0;
#X obj 56 78 +;
#X floatatom 56 40 5 0 0 0 - - -;
#X floatatom 56 117 5 0 0 0 - - -;
#X floatatom 134 40 5 0 0 0 - - -;
#X obj 134 78 +;
#X floatatom 134 117 5 0 0 0 - - -;
#X text 181 78 Why is the output different?;
#X connect 0 0 2 0;
#X connect 1 0 0 0;
#X connect 1 0 0 1;
#X connect 3 0 4 1;
#X connect 3 0 4 0;
#X connect 4 0 5 0;
#X restore 214 219 pd bad_example;
#X text 544 515 Patches from MCT4001 workshop 1 \, 2 September 2021
;
#X connect 0 0 2 0;
#X connect 1 0 2 1;
#X connect 2 0 3 0;
#X connect 5 0 9 0;
#X connect 6 0 5 0;
#X connect 7 0 5 1;
#X connect 8 0 5 2;
#X connect 11 0 13 0;
#X connect 12 0 11 0;
#X connect 14 0 11 1;
#X connect 18 0 19 0;
#X connect 20 0 24 0;
