#N canvas 469 414 1199 403 12;
#X obj 106 130 osc~;
#X floatatom 107 96 5 0 0 0 - - -;
#X obj 153 132 osc~;
#X floatatom 156 97 5 0 0 0 - - -;
#X obj 201 133 osc~;
#X floatatom 204 98 5 0 0 0 - - -;
#X obj 251 132 osc~;
#X floatatom 254 97 5 0 0 0 - - -;
#X obj 163 269 *~ 0.25;
#X obj 162 322 dac~;
#X msg 419 37 440 441 442.5 443;
#X msg 418 65 430 441 442.3 447;
#X msg 419 97 440.1 442.43 445.8 448.18;
#X msg 418 127 430.3 430.5 440.7 450.21;
#X msg 418 160 440.7 440.3 880.3 880.5;
#X obj 376 234 s beats;
#X text 765 35 "Rhytmic" beats -- but what is missing?;
#X msg 630 32 \; pd dsp 1;
#X msg 630 75 \; pd dsp 0;
#X obj 104 11 r beats;
#X obj 104 35 unpack f f f f;
#X msg 416 193 440.03 440.02 440.05 440.07;
#X text 772 79 Task: Experiment with different beating patterns. Add
envelopes to the individual oscillators to make it "rhythmic".;
#X obj 109 174 +~;
#X obj 201 177 +~;
#X connect 0 0 23 0;
#X connect 1 0 0 0;
#X connect 2 0 23 1;
#X connect 3 0 2 0;
#X connect 4 0 24 0;
#X connect 5 0 4 0;
#X connect 6 0 24 1;
#X connect 7 0 6 0;
#X connect 8 0 9 0;
#X connect 8 0 9 1;
#X connect 10 0 15 0;
#X connect 11 0 15 0;
#X connect 12 0 15 0;
#X connect 13 0 15 0;
#X connect 14 0 15 0;
#X connect 19 0 20 0;
#X connect 20 0 1 0;
#X connect 20 1 3 0;
#X connect 20 2 5 0;
#X connect 20 3 7 0;
#X connect 21 0 15 0;
#X connect 23 0 8 0;
#X connect 24 0 8 0;
