#N canvas 395 23 624 667 12;
#X text 83 393 For spatial audio: Remember to work on generalizing
your pathces \, so to facilitate rapid-prototyping when making your
project.;
#X text 82 454 Projects can be ANYTHING!;
#N canvas 237 23 751 521 scrubber 0;
#X obj 144 18 bng 15 250 50 0 empty empty empty 17 7 0 10 -262144 -1
-1;
#X obj 144 38 openpanel;
#X msg 144 61 read -resize \$1 scrubbb;
#N canvas 0 22 450 278 (subpatch) 0;
#X array scrubbb 101939 float 2;
#X coords 0 1 101939 -1 200 140 1;
#X restore 412 28 graph;
#X obj 144 84 soundfiler;
#X floatatom 144 107 10 0 0 0 - - -;
#X obj 144 129 t b f;
#X obj 226 84 bng 15 250 50 0 empty empty empty 17 7 0 10 -262144 -1
-1;
#X obj 415 168 hsl 195 15 0 101939 0 0 empty empty empty -2 -8 0 10
-262144 -1 -1 5550 1;
#X msg 143 212 range \$1 \$2;
#X msg 143 160 0;
#X obj 143 185 pack f f;
#X obj 138 327 tabread4~ scrubbb;
#X obj 138 351 *~;
#X obj 138 387 dac~;
#X obj 275 262 vsl 15 128 0 1 0 0 empty empty empty 0 -9 0 10 -262144
-1 -1 6250 1;
#X floatatom 276 404 5 0 0 0 - - -;
#X msg 142 268 \$1 100;
#X obj 139 300 vline~;
#X text 160 460 Use this later for granular synthesis;
#X connect 0 0 1 0;
#X connect 1 0 2 0;
#X connect 2 0 4 0;
#X connect 4 0 5 0;
#X connect 5 0 6 0;
#X connect 6 0 10 0;
#X connect 6 1 11 1;
#X connect 7 0 5 0;
#X connect 8 0 17 0;
#X connect 9 0 8 0;
#X connect 10 0 11 0;
#X connect 11 0 9 0;
#X connect 12 0 13 0;
#X connect 13 0 14 0;
#X connect 13 0 14 1;
#X connect 15 0 16 0;
#X connect 16 0 13 1;
#X connect 17 0 18 0;
#X connect 18 0 12 0;
#X restore 74 114 pd scrubber;
#N canvas 0 23 724 492 tapeScrubber 0;
#X obj 223 11 bng 15 250 50 0 empty empty empty 17 7 0 10 -262144 -1
-1;
#X obj 223 31 openpanel;
#X obj 223 77 soundfiler;
#X floatatom 223 100 10 0 0 0 - - -;
#X obj 305 77 bng 15 250 50 0 empty empty empty 17 7 0 10 -262144 -1
-1;
#X obj 219 347 *~;
#X obj 219 383 dac~;
#X obj 168 247 vsl 15 128 0 1 0 0 empty empty empty 0 -9 0 10 -262144
-1 -1 6450 1;
#X floatatom 169 389 5 0 0 0 - - -;
#X obj 218 272 vline~;
#N canvas 0 22 450 278 (subpatch) 0;
#X array tapeScrub 101939 float 2;
#X coords 0 1 101939 -1 200 140 1 0 0;
#X restore 412 28 graph;
#X obj 415 168 hsl 195 15 0 101939 0 0 empty empty empty -2 -8 0 10
-262144 -1 -1 9700 1;
#X msg 222 205 range \$1 \$2;
#X msg 222 153 0;
#X obj 222 178 pack f f;
#X obj 219 323 tabread4~ tapeScrub;
#X msg 224 54 read -resize \$1 tapeScrub;
#X obj 227 128 t b f;
#X obj 218 249 \$1 10;
#X obj 218 297 lop~ 0.3;
#X text 283 297 The low-pass filter creates the effect;
#X connect 0 0 1 0;
#X connect 1 0 16 0;
#X connect 2 0 3 0;
#X connect 3 0 17 0;
#X connect 4 0 3 0;
#X connect 5 0 6 0;
#X connect 5 0 6 1;
#X connect 7 0 8 0;
#X connect 8 0 5 1;
#X connect 9 0 19 0;
#X connect 11 0 18 0;
#X connect 12 0 11 0;
#X connect 13 0 14 0;
#X connect 14 0 12 0;
#X connect 15 0 5 0;
#X connect 16 0 2 0;
#X connect 17 0 13 0;
#X connect 17 1 14 1;
#X connect 18 0 9 0;
#X connect 19 0 15 0;
#X restore 74 161 pd tapeScrubber;
#N canvas 29 23 831 587 looper 0;
#X obj 73 121 adc~;
#X obj 73 152 *~;
#X floatatom 110 122 5 0 0 0 - - -;
#X obj 73 183 tabwrite~ looper;
#N canvas 0 22 450 278 (subpatch) 0;
#X array looper 132300 float 2;
#X coords 0 1 132300 -1 200 140 1 0 0;
#X restore 560 292 graph;
#X msg 133 153 start;
#X msg 179 154 stop;
#X obj 325 309 tabread4~ looper;
#X obj 325 332 *~;
#X obj 325 355 dac~;
#X obj 443 311 vsl 15 128 0 1 0 0 empty empty empty 0 -9 0 10 -262144
-1 -1 0 1;
#X obj 324 74 tgl 15 0 empty empty empty 17 7 0 10 -262144 -1 -1 0
1;
#X obj 324 94 sel 1;
#X obj 324 117 bng 15 250 50 0 empty empty empty 17 7 0 10 -262144
-1 -1;
#X obj 356 117 bng 15 250 50 0 empty empty empty 17 7 0 10 -262144
-1 -1;
#X obj 324 145 timer;
#X floatatom 324 168 5 0 0 0 - - -;
#X obj 324 238 phasor~;
#X obj 324 190 t f f;
#X obj 324 215 expr 1000 / $f1;
#X obj 357 269 *~ 44.1;
#X obj 324 265 *~;
#X msg 547 111 \; looper resize \$1;
#X floatatom 547 45 5 0 0 0 - - -;
#X obj 547 67 expr 44100 * $f1;
#X floatatom 547 90 10 0 0 0 - - -;
#X obj 58 280 tgl 15 0 empty empty empty 17 7 0 10 -262144 -1 -1 0
1;
#X obj 58 325 bng 15 250 50 0 empty empty empty 17 7 0 10 -262144 -1
-1;
#X obj 58 300 metro 1005;
#X text 54 258 Add function to control time;
#X msg 256 205 0;
#X msg 370 190 0;
#X obj 256 185 bng 15 250 50 0 empty empty empty 17 7 0 10 -262144
-1 -1;
#X text 28 398 Add the output of tabread4~ to tabwrite~ for overdub
;
#X text 152 121 Amp the input;
#X text 493 22 Set size of array in seconds/samples;
#X text 273 49 Start/stop recording;
#X text 254 224 Stop;
#X text 252 166 Start;
#X text 399 191 Reset phase;
#X text 434 216 Playback speed;
#X text 364 169 Size of sample in ms;
#X connect 0 0 1 0;
#X connect 1 0 3 0;
#X connect 2 0 1 1;
#X connect 5 0 3 0;
#X connect 6 0 3 0;
#X connect 7 0 8 0;
#X connect 8 0 9 0;
#X connect 8 0 9 1;
#X connect 10 0 8 1;
#X connect 11 0 12 0;
#X connect 12 0 13 0;
#X connect 12 1 14 0;
#X connect 13 0 5 0;
#X connect 13 0 15 0;
#X connect 14 0 6 0;
#X connect 14 0 15 1;
#X connect 15 0 16 0;
#X connect 16 0 18 0;
#X connect 17 0 21 0;
#X connect 18 0 19 0;
#X connect 18 1 20 0;
#X connect 19 0 17 0;
#X connect 20 0 21 1;
#X connect 21 0 7 0;
#X connect 23 0 24 0;
#X connect 24 0 25 0;
#X connect 25 0 22 0;
#X connect 26 0 28 0;
#X connect 28 0 27 0;
#X connect 30 0 17 0;
#X connect 31 0 17 1;
#X connect 32 0 19 0;
#X coords 0 0 0.5 0.5 0 0 0;
#X restore 73 215 pd looper;
#N canvas 8 23 842 596 slicer 0;
#X obj 344 12 bng 15 250 50 0 empty empty empty 17 7 0 10 -262144 -1
-1;
#X obj 344 32 openpanel;
#X obj 344 78 soundfiler;
#X floatatom 344 101 10 0 0 0 - - -;
#X obj 426 78 bng 15 250 50 0 empty empty empty 17 7 0 10 -262144 -1
-1;
#X obj 298 465 *~;
#X obj 298 501 dac~;
#X obj 266 349 vsl 15 128 0 1 0 0 empty empty empty 0 -9 0 10 -262144
-1 -1 9700 1;
#X floatatom 255 501 5 0 0 0 - - -;
#N canvas 0 22 450 278 (subpatch) 0;
#X array slicer 124439 float 2;
#X coords 0 1 124439 -1 200 140 1 0 0;
#X restore 565 24 graph;
#X msg 345 55 read -resize \$1 slicer;
#X obj 297 435 tabread4~ slicer;
#X obj 344 176 expr pow(2 \, $f1);
#X floatatom 344 150 5 0 0 0 - - -;
#X floatatom 344 199 5 0 0 0 - - -;
#X text 464 175 Create subdivisions;
#X obj 344 223 t f f;
#X obj 344 124 t b f;
#X obj 376 250 expr $f2 / $f1;
#X obj 297 412 vline~;
#X msg 297 387 \$1 \, \$2 \$3;
#X floatatom 376 273 10 0 0 0 - - -;
#X obj 305 250 random;
#X obj 299 203 tgl 15 0 empty empty empty 17 7 0 10 -262144 -1 -1 1
1;
#X obj 299 223 metro;
#X obj 296 365 pack f f f;
#X obj 297 338 *;
#X obj 340 305 + 1;
#X obj 304 273 t f f;
#X obj 340 338 *;
#X obj 374 338 / 44.1;
#X text 451 273 Correct playback length;
#X text 66 215 Changes at end of each metro;
#X text 383 199 Amount of subdivisions;
#X text 136 249 Randomly select segment;
#X text 371 389 Envelope for each segment;
#X connect 0 0 1 0;
#X connect 1 0 10 0;
#X connect 2 0 3 0;
#X connect 3 0 17 0;
#X connect 4 0 3 0;
#X connect 5 0 6 0;
#X connect 5 0 6 1;
#X connect 7 0 8 0;
#X connect 8 0 5 1;
#X connect 10 0 2 0;
#X connect 11 0 5 0;
#X connect 12 0 14 0;
#X connect 13 0 12 0;
#X connect 14 0 16 0;
#X connect 16 0 22 1;
#X connect 16 1 18 0;
#X connect 17 0 13 0;
#X connect 17 1 18 1;
#X connect 18 0 21 0;
#X connect 19 0 11 0;
#X connect 20 0 19 0;
#X connect 21 0 26 1;
#X connect 21 0 29 1;
#X connect 21 0 30 0;
#X connect 22 0 28 0;
#X connect 23 0 24 0;
#X connect 24 0 22 0;
#X connect 25 0 20 0;
#X connect 26 0 25 0;
#X connect 27 0 29 0;
#X connect 28 0 26 0;
#X connect 28 1 27 0;
#X connect 29 0 25 1;
#X connect 30 0 25 2;
#X connect 30 0 24 1;
#X restore 75 265 pd slicer;
#X text 63 19 Sampling \, part 2;
#X text 152 215 Read audio into buffer and overdub;
#X text 149 265 Chop audio;
#X text 179 116 Standalone scrub \, sampler from last week;
#X text 200 161 Uses a one-pole filter for tape-emulation;
