#N canvas 501 159 376 531 12;
#X text 23 17 Granular synthesis;
#N canvas 977 55 765 598 firstGrain 1;
#X obj 96 31 bng 15 250 50 0 empty empty empty 17 7 0 10 -262144 -1
-1;
#X obj 96 51 openpanel;
#X obj 96 97 soundfiler;
#X floatatom 96 120 10 0 0 0 - - -;
#X obj 178 97 bng 15 250 50 0 empty empty empty 17 7 0 10 -262144 -1
-1;
#X obj 298 465 *~;
#X obj 298 501 dac~;
#X obj 255 363 vsl 15 128 0 1 0 0 empty empty empty 0 -9 0 10 -262144
-1 -1 8200 1;
#X floatatom 255 501 5 0 0 0 - - -;
#X obj 297 412 vline~;
#X msg 297 387 \$1 \, \$2 \$3;
#X obj 296 365 pack f f f;
#N canvas 0 22 450 278 (subpatch) 0;
#X array file 124439 float 2;
#X coords 0 1 124439 -1 200 140 1;
#X restore 413 18 graph;
#X msg 97 74 read -resize \$1 file;
#X obj 297 435 tabread4~ file;
#X obj 345 285 * 44.1;
#X obj 295 264 t f f;
#X obj 328 316 +;
#X floatatom 289 218 5 0 0 0 - - -;
#X obj 289 194 bng 15 250 50 0 empty empty empty 17 7 0 10 -262144
-1 -1;
#X obj 390 313 / 1;
#X obj 431 240 t b f;
#X floatatom 359 241 5 0 0 0 - - -;
#X floatatom 436 205 5 0 0 0 - - -;
#X text 383 390 Start \, end duration;
#X text 431 187 Speed;
#X text 350 220 Duration;
#X text 245 218 Start;
#X text 398 286 <--- End time is start and duration added;
#X text 481 207 Speed of playback;
#X text 38 538 This patch will be the basis for the session;
#X connect 0 0 1 0;
#X connect 1 0 13 0;
#X connect 2 0 3 0;
#X connect 4 0 3 0;
#X connect 5 0 6 0;
#X connect 5 0 6 1;
#X connect 7 0 8 0;
#X connect 8 0 5 1;
#X connect 9 0 14 0;
#X connect 10 0 9 0;
#X connect 11 0 10 0;
#X connect 13 0 2 0;
#X connect 14 0 5 0;
#X connect 15 0 17 1;
#X connect 16 0 11 0;
#X connect 16 1 17 0;
#X connect 17 0 11 1;
#X connect 18 0 16 0;
#X connect 19 0 18 0;
#X connect 20 0 11 2;
#X connect 21 0 20 0;
#X connect 21 1 20 1;
#X connect 22 0 15 0;
#X connect 22 0 20 0;
#X connect 23 0 21 0;
#X restore 39 108 pd firstGrain;
#N canvas 0 23 450 300 grainAbstraction 0;
#X restore 39 149 pd grainAbstraction;
#N canvas 0 23 450 300 grainSynth 0;
#X restore 39 193 pd grainSynth;
#X text 159 108 <- Prototype;
#X text 184 149 <- Empty;
#X text 183 193 <- Empty;
