#N canvas 491 224 360 294 12;
#N canvas 0 23 495 300 filePlayback 0;
#X obj 100 113 readsf~ 2;
#X msg 75 26 open msdos.wav;
#X obj 98 168 *~;
#X obj 131 166 *~;
#X floatatom 163 169 5 0 0 0 - - -;
#X obj 99 237 dac~, f 5;
#X obj 216 133 vsl 15 128 0 1 0 0 empty empty empty 0 -9 0 10 -262144
-1 -1 0 1;
#X obj 148 86 tgl 15 0 empty empty empty 17 7 0 10 -262144 -1 -1 0
1;
#X obj 159 138 bng 15 250 50 0 empty empty empty 17 7 0 10 -262144
-1 -1;
#X msg 111 68 print;
#X text 193 26 File must be in path or path specified;
#X connect 0 0 2 0;
#X connect 0 1 3 0;
#X connect 0 2 8 0;
#X connect 1 0 0 0;
#X connect 2 0 5 0;
#X connect 3 0 5 1;
#X connect 4 0 2 1;
#X connect 4 0 3 1;
#X connect 6 0 4 0;
#X connect 7 0 0 0;
#X connect 9 0 0 0;
#X restore 101 79 pd filePlayback;
#N canvas 0 23 450 300 writingFile 0;
#X obj 36 156 writesf~ 2;
#X obj 42 62 adc~;
#X obj 36 107 *~;
#X obj 72 107 *~;
#X floatatom 94 76 5 0 0 0 - - -;
#X obj 147 40 vsl 15 128 0 1 0 0 empty empty empty 0 -9 0 10 -262144
-1 -1 0 1;
#X msg 176 42 open testRec.wav;
#X msg 173 78 start;
#X msg 175 111 stop;
#X msg 177 147 print;
#X text 177 11 Records to path;
#X connect 1 0 2 0;
#X connect 1 1 3 0;
#X connect 2 0 0 0;
#X connect 3 0 0 1;
#X connect 4 0 3 1;
#X connect 4 0 2 1;
#X connect 5 0 4 0;
#X connect 6 0 0 0;
#X connect 7 0 0 0;
#X connect 8 0 0 0;
#X connect 9 0 0 0;
#X restore 101 118 pd writingFile;
#X text 35 17 Sampling*;
#N canvas 296 373 973 649 samplerArray 0;
#N canvas 0 22 450 278 (subpatch) 0;
#X array audioFileL 344488 float 2;
#X coords 0 1 344488 -1 200 140 1 0 0;
#X restore 673 37 graph;
#N canvas 0 22 450 278 (subpatch) 0;
#X array audioFileR 344488 float 2;
#X coords 0 1 344488 -1 200 140 1 0 0;
#X restore 672 209 graph;
#X obj 23 48 soundfiler;
#X obj 65 199 tabplay~ audioFileL;
#X obj 208 200 tabplay~ audioFileR;
#X obj 65 154 bng 15 250 50 0 empty empty empty 17 7 0 10 -262144 -1
-1;
#X msg 119 154 stop;
#X msg 208 145 100 40000;
#X obj 104 369 dac~;
#X obj 65 264 *~;
#X obj 206 266 *~;
#X floatatom 277 312 5 0 0 0 - - -;
#X obj 317 255 vsl 15 128 0 1 0 0 empty empty empty 0 -9 0 10 -262144
-1 -1 9900 1;
#X msg 304 125 1000 40000;
#X obj 265 73 bng 15 250 50 0 empty empty empty 17 7 0 10 -262144 -1
-1;
#X msg 301 155 130000 40000;
#X floatatom 24 98 10 0 0 0 - - -;
#X obj 90 75 print soundfile;
#X text 354 15 Requires stereofile;
#X msg 24 16 read -resize now.wav audioFileL audioFileR;
#X connect 2 0 16 0;
#X connect 2 1 17 0;
#X connect 3 0 9 0;
#X connect 4 0 10 0;
#X connect 5 0 3 0;
#X connect 5 0 4 0;
#X connect 6 0 3 0;
#X connect 6 0 4 0;
#X connect 7 0 3 0;
#X connect 7 0 4 0;
#X connect 9 0 8 0;
#X connect 10 0 8 1;
#X connect 11 0 10 1;
#X connect 11 0 9 1;
#X connect 12 0 11 0;
#X connect 13 0 3 0;
#X connect 14 0 13 0;
#X connect 14 0 15 0;
#X connect 15 0 4 0;
#X connect 19 0 2 0;
#X restore 101 157 pd samplerArray;
#N canvas 147 33 1135 737 variSampler 0;
#X msg 170 276 range 0 \$1;
#X obj 217 376 hsl 128 15 0 344488 0 0 empty empty End -2 -8 0 10 -262144
-1 -1 9100 1;
#X obj 243 316 hsl 128 15 0 344488 0 0 empty empty Start -2 -8 0 10
-262144 -1 -1 3923 1;
#X obj 159 127 bng 15 250 50 0 empty empty empty 17 7 0 10 -262144
-1 -1;
#X obj 159 147 openpanel;
#N canvas 0 22 450 278 (subpatch) 0;
#X array sampler1 344488 float 2;
#X coords 0 1 344488 -1 200 140 1 0 0;
#X restore 368 151 graph;
#X obj 159 195 soundfiler;
#X floatatom 159 219 8 0 0 0 - - -;
#X obj 231 224 print readDone;
#X msg 159 171 read -resize \$1 sampler1;
#X obj 591 452 tabread4~ sampler1;
#X obj 591 495 *~;
#X obj 730 458 vsl 15 128 0 1 0 0 empty empty Volume 0 -9 0 10 -262144
-1 -1 9700 1;
#X floatatom 730 594 5 0 0 0 - - -;
#X obj 590 543 dac~;
#X obj 591 425 vline~;
#X msg 675 389 \$1 100;
#X obj 678 359 r start;
#X obj 744 359 r end;
#X obj 240 340 s start;
#X obj 214 396 s end;
#X msg 591 389 \$1 \, \$2 \$3;
#X obj 590 359 pack f f f;
#X obj 610 195 r start;
#X obj 592 228 f;
#X obj 591 182 bng 15 250 50 0 empty empty empty 17 7 0 10 -262144
-1 -1;
#X obj 625 228 expr abs($f2 - $f1) / 44.1;
#X obj 770 193 r end;
#X obj 623 315 r end;
#X floatatom 659 253 8 0 0 0 - - -;
#X obj 165 342 s end;
#X obj 659 282 / 1;
#X floatatom 695 283 5 0.1 5 0 - - -;
#X connect 0 0 1 0;
#X connect 0 0 2 0;
#X connect 1 0 20 0;
#X connect 2 0 19 0;
#X connect 3 0 4 0;
#X connect 4 0 9 0;
#X connect 6 0 7 0;
#X connect 6 1 8 0;
#X connect 7 0 0 0;
#X connect 7 0 30 0;
#X connect 9 0 6 0;
#X connect 10 0 11 0;
#X connect 11 0 14 0;
#X connect 11 0 14 1;
#X connect 12 0 13 0;
#X connect 13 0 11 1;
#X connect 15 0 10 0;
#X connect 16 0 15 0;
#X connect 17 0 16 0;
#X connect 18 0 16 0;
#X connect 21 0 15 0;
#X connect 22 0 21 0;
#X connect 23 0 24 1;
#X connect 23 0 26 0;
#X connect 24 0 22 0;
#X connect 25 0 24 0;
#X connect 26 0 29 0;
#X connect 27 0 26 1;
#X connect 28 0 22 1;
#X connect 29 0 31 0;
#X connect 31 0 22 2;
#X connect 32 0 31 1;
#X restore 101 196 pd variSampler;
#X text 7 249 * Not to be confused with audio sample == 1/sr.;
