#N canvas 504 162 606 300 12;
#X text 27 15 Granular synthesis 2;
#N canvas 601 23 695 711 cloneExample 0;
#X obj 96 31 bng 15 250 50 0 empty empty empty 17 7 0 10 -262144 -1
-1;
#X obj 96 51 openpanel;
#X obj 96 130 soundfiler;
#X floatatom 96 153 10 0 0 0 - - -;
#X obj 178 130 bng 15 250 50 0 empty empty empty 17 7 0 10 -262144
-1 -1;
#X obj 227 527 *~;
#X obj 227 563 dac~;
#X obj 184 425 vsl 15 128 0 1 0 0 empty empty empty 0 -9 0 10 -262144
-1 -1 0 1;
#X floatatom 184 563 5 0 0 0 - - -;
#N canvas 0 22 450 278 (subpatch) 0;
#X array \$0-grain2 88200 float 2;
#X coords 0 1 88200 -1 200 140 1 0 0;
#X restore 307 21 graph;
#X floatatom 354 449 5 0 0 0 - - -;
#X obj 354 471 s grainDuration;
#X floatatom 406 450 5 0 0 0 - - -;
#X obj 406 493 s grainSpeed;
#X obj 227 290 phasor~;
#X obj 227 321 *~;
#X obj 227 344 snapshot~;
#X msg 227 460 next \$1;
#X obj 138 268 tgl 15 0 empty empty empty 17 7 0 10 -262144 -1 -1 0
1;
#X obj 138 288 metro 100;
#X obj 227 236 expr 44100 / $f1;
#X floatatom 242 262 10 0 0 0 - - -;
#X text 314 262 Speed in Hz;
#X floatatom 291 367 10 0 0 0 - - -;
#X obj 298 342 random 200;
#X obj 228 388 +;
#X obj 138 312 t b b;
#X floatatom 297 321 10 0 0 0 - - -;
#X text 379 343 Random jitter to playback;
#X text 281 517 The abstraction "grain" must be in externals folder
;
#X text 94 11 Load soundfile;
#X text 348 234 Find speed;
#X text 38 344 Output control from audio;
#X text 258 388 Add random value to soundfile position;
#X text 167 404 Volume;
#X text 352 426 Controls inside "grain" abstraction;
#X obj 346 613 f \$0;
#X obj 346 637 print;
#X obj 346 594 bng 15 250 50 0 empty empty empty 17 7 0 10 -262144
-1 -1;
#X obj 96 76 list \$0;
#X text 388 616 To find the unique number of \$0;
#X obj 227 498 clone grain2 16 \$0;
#X msg 96 101 read -resize \$1 \$2-grain2;
#X connect 0 0 1 0;
#X connect 1 0 39 0;
#X connect 2 0 3 0;
#X connect 3 0 15 1;
#X connect 3 0 20 0;
#X connect 4 0 3 0;
#X connect 5 0 6 0;
#X connect 5 0 6 1;
#X connect 7 0 8 0;
#X connect 8 0 5 1;
#X connect 10 0 11 0;
#X connect 12 0 13 0;
#X connect 14 0 15 0;
#X connect 15 0 16 0;
#X connect 16 0 23 0;
#X connect 16 0 25 0;
#X connect 17 0 41 0;
#X connect 18 0 19 0;
#X connect 19 0 26 0;
#X connect 20 0 14 0;
#X connect 20 0 21 0;
#X connect 24 0 25 1;
#X connect 25 0 17 0;
#X connect 26 0 16 0;
#X connect 26 1 24 0;
#X connect 27 0 24 1;
#X connect 36 0 37 0;
#X connect 38 0 36 0;
#X connect 39 0 42 0;
#X connect 41 0 5 0;
#X connect 42 0 2 0;
#X restore 29 66 pd cloneExample;
#N canvas 168 227 1568 798 windowingFunctions 0;
#X text 34 21 Windowing functions;
#X text 33 47 Gausssian \, Hamming \, Hanning \, Triangular;
#X restore 28 114 pd windowingFunctions;
#X text 154 66 <- Uses \$0 inside and outside clone (needs the "grain2"
abstraction);
