#N canvas 162 126 1542 910 12;
#X floatatom 113 74 5 0 0 0 - note1 -;
#X obj 113 97 mtof;
#X floatatom 113 121 10 0 0 0 - - -;
#X obj 113 144 phasor~;
#X obj 113 168 lop~ 6000;
#X obj 113 227 *~;
#X obj 208 101 metro 10000;
#X obj 208 145 bng 15 250 50 0 empty empty empty 17 7 0 10 -262144
-1 -1;
#X obj 209 216 line;
#X msg 209 188 0.3 500;
#X msg 275 185 0 1200;
#X obj 274 161 delay 3000;
#X obj 113 258 throw~ L;
#X obj 1389 867 dac~;
#X obj 1428 687 catch~ L;
#X obj 1359 22 tgl 15 0 empty empty empty 17 7 0 10 -262144 -1 -1 1
1;
#X obj 1359 42 s startStop;
#X obj 208 75 r startStop;
#X obj 1237 771 *~ 0.6;
#X obj 1064 770 *~ 0.6;
#X obj 1064 794 lop~ 6000;
#X obj 1237 795 lop~ 4000;
#X obj 1447 22 bng 15 250 50 0 empty empty empty 17 7 0 10 -262144
-1 -1;
#X obj 1447 42 s randomize;
#X obj 306 24 r randomize;
#X obj 306 50 random 20000;
#X obj 365 79 random 3000;
#X obj 365 103 + 1000;
#X obj 306 79 + 10000;
#X floatatom 301 105 8 0 0 0 - - -;
#X floatatom 366 128 8 0 0 0 - - -;
#X floatatom 482 73 5 0 0 0 - note2 -;
#X obj 482 96 mtof;
#X floatatom 482 120 10 0 0 0 - - -;
#X obj 482 143 phasor~;
#X obj 482 167 lop~ 6000;
#X obj 482 226 *~;
#X obj 577 100 metro 10000;
#X obj 577 144 bng 15 250 50 0 empty empty empty 17 7 0 10 -262144
-1 -1;
#X obj 578 215 line;
#X msg 578 187 0.3 500;
#X msg 644 184 0 1200;
#X obj 643 160 delay 3000;
#X obj 484 285 throw~ L;
#X obj 577 74 r startStop;
#X obj 675 23 r randomize;
#X obj 675 49 random 20000;
#X obj 734 78 random 3000;
#X obj 734 102 + 1000;
#X obj 675 78 + 10000;
#X floatatom 670 104 8 0 0 0 - - -;
#X floatatom 735 127 8 0 0 0 - - -;
#X floatatom 839 63 5 0 0 0 - note3 -;
#X obj 839 86 mtof;
#X floatatom 839 110 10 0 0 0 - - -;
#X obj 839 133 phasor~;
#X obj 839 157 lop~ 6000;
#X obj 839 216 *~;
#X obj 934 90 metro 10000;
#X obj 934 134 bng 15 250 50 0 empty empty empty 17 7 0 10 -262144
-1 -1;
#X obj 935 205 line;
#X msg 935 177 0.3 500;
#X msg 1001 174 0 1200;
#X obj 1000 150 delay 3000;
#X obj 841 275 throw~ L;
#X obj 934 64 r startStop;
#X obj 1032 13 r randomize;
#X obj 1032 39 random 20000;
#X obj 1091 68 random 3000;
#X obj 1091 92 + 1000;
#X obj 1032 68 + 10000;
#X floatatom 1027 94 8 0 0 0 - - -;
#X floatatom 1092 117 8 0 0 0 - - -;
#X floatatom 118 414 5 0 0 0 - note4 -;
#X obj 118 437 mtof;
#X floatatom 118 461 10 0 0 0 - - -;
#X obj 118 484 phasor~;
#X obj 118 508 lop~ 6000;
#X obj 118 567 *~;
#X obj 213 441 metro 10000;
#X obj 213 485 bng 15 250 50 0 empty empty empty 17 7 0 10 -262144
-1 -1;
#X obj 214 556 line;
#X msg 214 528 0.3 500;
#X msg 280 525 0 1200;
#X obj 279 501 delay 3000;
#X obj 120 626 throw~ L;
#X obj 213 415 r startStop;
#X obj 311 364 r randomize;
#X obj 311 390 random 20000;
#X obj 370 419 random 3000;
#X obj 370 443 + 1000;
#X obj 311 419 + 10000;
#X floatatom 306 445 8 0 0 0 - - -;
#X floatatom 371 468 8 0 0 0 - - -;
#X floatatom 487 413 5 0 0 0 - note5 -;
#X obj 487 436 mtof;
#X floatatom 487 460 10 0 0 0 - - -;
#X obj 487 483 phasor~;
#X obj 487 507 lop~ 6000;
#X obj 487 566 *~;
#X obj 582 440 metro 10000;
#X obj 582 484 bng 15 250 50 0 empty empty empty 17 7 0 10 -262144
-1 -1;
#X obj 583 555 line;
#X msg 583 527 0.3 500;
#X msg 649 524 0 1200;
#X obj 648 500 delay 3000;
#X obj 489 625 throw~ L;
#X obj 582 414 r startStop;
#X obj 680 363 r randomize;
#X obj 680 389 random 20000;
#X obj 739 418 random 3000;
#X obj 739 442 + 1000;
#X obj 680 418 + 10000;
#X floatatom 675 444 8 0 0 0 - - -;
#X floatatom 740 467 8 0 0 0 - - -;
#X floatatom 844 403 5 0 0 0 - note6 -;
#X obj 844 426 mtof, f 7;
#X floatatom 844 450 10 0 0 0 - - -;
#X obj 844 473 phasor~;
#X obj 844 497 lop~ 6000;
#X obj 844 556 *~;
#X obj 939 430 metro 10000;
#X obj 939 474 bng 15 250 50 0 empty empty empty 17 7 0 10 -262144
-1 -1;
#X obj 940 545 line;
#X msg 940 517 0.3 500;
#X msg 1006 514 0 1200;
#X obj 1005 490 delay 3000;
#X obj 844 593 throw~ L;
#X obj 939 404 r startStop;
#X obj 1037 353 r randomize;
#X obj 1037 379 random 20000;
#X obj 1096 408 random 3000;
#X obj 1096 432 + 1000;
#X obj 1037 408 + 10000;
#X floatatom 1032 434 8 0 0 0 - - -;
#X floatatom 1097 457 8 0 0 0 - - -;
#X msg 1274 120 \; note1 35 \; note2 56 \; note3 60 \; note4 62 \;
note5 80 \; note6 96 \;;
#X obj 1274 94 loadbang;
#X msg 1359 120 \; note1 37 \; note2 40 \; note3 42 \; note4 46 \;
note5 50 \; note6 56 \;;
#X text 267 758 As preparation for MobMuPlat::improve this patch \,
sound and control-wise. Make global controls for user input.;
#X obj 1157 621 r randomize;
#X floatatom 1157 673 5 0 0 0 - - -;
#X obj 1064 746 delread~ \$0-bufDel 800;
#X obj 1237 747 delread~ \$0-bufDel 600;
#X obj 1237 719 delwrite~ \$0-bufDel 3000;
#X obj 1157 649 random 3000;
#X floatatom 1068 678 5 0 0 0 - - -;
#X obj 1068 654 random 3000;
#X connect 0 0 1 0;
#X connect 1 0 2 0;
#X connect 2 0 3 0;
#X connect 3 0 4 0;
#X connect 4 0 5 0;
#X connect 5 0 12 0;
#X connect 6 0 7 0;
#X connect 7 0 9 0;
#X connect 7 0 11 0;
#X connect 8 0 5 1;
#X connect 9 0 8 0;
#X connect 10 0 8 0;
#X connect 11 0 10 0;
#X connect 14 0 13 0;
#X connect 14 0 144 0;
#X connect 14 0 13 1;
#X connect 15 0 16 0;
#X connect 17 0 6 0;
#X connect 18 0 21 0;
#X connect 19 0 20 0;
#X connect 20 0 13 1;
#X connect 21 0 13 0;
#X connect 22 0 23 0;
#X connect 24 0 25 0;
#X connect 24 0 26 0;
#X connect 25 0 28 0;
#X connect 26 0 27 0;
#X connect 27 0 30 0;
#X connect 27 0 11 1;
#X connect 28 0 6 1;
#X connect 28 0 29 0;
#X connect 31 0 32 0;
#X connect 32 0 33 0;
#X connect 33 0 34 0;
#X connect 34 0 35 0;
#X connect 35 0 36 0;
#X connect 36 0 43 0;
#X connect 37 0 38 0;
#X connect 38 0 40 0;
#X connect 38 0 42 0;
#X connect 39 0 36 1;
#X connect 40 0 39 0;
#X connect 41 0 39 0;
#X connect 42 0 41 0;
#X connect 44 0 37 0;
#X connect 45 0 46 0;
#X connect 45 0 47 0;
#X connect 46 0 49 0;
#X connect 47 0 48 0;
#X connect 48 0 51 0;
#X connect 48 0 42 1;
#X connect 49 0 37 1;
#X connect 49 0 50 0;
#X connect 52 0 53 0;
#X connect 53 0 54 0;
#X connect 54 0 55 0;
#X connect 55 0 56 0;
#X connect 56 0 57 0;
#X connect 57 0 64 0;
#X connect 58 0 59 0;
#X connect 59 0 61 0;
#X connect 59 0 63 0;
#X connect 60 0 57 1;
#X connect 61 0 60 0;
#X connect 62 0 60 0;
#X connect 63 0 62 0;
#X connect 65 0 58 0;
#X connect 66 0 67 0;
#X connect 66 0 68 0;
#X connect 67 0 70 0;
#X connect 68 0 69 0;
#X connect 69 0 72 0;
#X connect 69 0 63 1;
#X connect 70 0 58 1;
#X connect 70 0 71 0;
#X connect 73 0 74 0;
#X connect 74 0 75 0;
#X connect 75 0 76 0;
#X connect 76 0 77 0;
#X connect 77 0 78 0;
#X connect 78 0 85 0;
#X connect 79 0 80 0;
#X connect 80 0 82 0;
#X connect 80 0 84 0;
#X connect 81 0 78 1;
#X connect 82 0 81 0;
#X connect 83 0 81 0;
#X connect 84 0 83 0;
#X connect 86 0 79 0;
#X connect 87 0 88 0;
#X connect 87 0 89 0;
#X connect 88 0 91 0;
#X connect 89 0 90 0;
#X connect 90 0 93 0;
#X connect 90 0 84 1;
#X connect 91 0 79 1;
#X connect 91 0 92 0;
#X connect 94 0 95 0;
#X connect 95 0 96 0;
#X connect 96 0 97 0;
#X connect 97 0 98 0;
#X connect 98 0 99 0;
#X connect 99 0 106 0;
#X connect 100 0 101 0;
#X connect 101 0 103 0;
#X connect 101 0 105 0;
#X connect 102 0 99 1;
#X connect 103 0 102 0;
#X connect 104 0 102 0;
#X connect 105 0 104 0;
#X connect 107 0 100 0;
#X connect 108 0 109 0;
#X connect 108 0 110 0;
#X connect 109 0 112 0;
#X connect 110 0 111 0;
#X connect 111 0 114 0;
#X connect 111 0 105 1;
#X connect 112 0 100 1;
#X connect 112 0 113 0;
#X connect 115 0 116 0;
#X connect 116 0 117 0;
#X connect 117 0 118 0;
#X connect 118 0 119 0;
#X connect 119 0 120 0;
#X connect 120 0 127 0;
#X connect 121 0 122 0;
#X connect 122 0 124 0;
#X connect 122 0 126 0;
#X connect 123 0 120 1;
#X connect 124 0 123 0;
#X connect 125 0 123 0;
#X connect 126 0 125 0;
#X connect 128 0 121 0;
#X connect 129 0 130 0;
#X connect 129 0 131 0;
#X connect 130 0 133 0;
#X connect 131 0 132 0;
#X connect 132 0 135 0;
#X connect 132 0 126 1;
#X connect 133 0 121 1;
#X connect 133 0 134 0;
#X connect 137 0 136 0;
#X connect 140 0 145 0;
#X connect 140 0 147 0;
#X connect 141 0 143 0;
#X connect 142 0 19 0;
#X connect 143 0 18 0;
#X connect 145 0 141 0;
#X connect 146 0 142 0;
#X connect 147 0 146 0;
