#N canvas 998 743 664 413 12;
#X obj 117 263 vline~;
#X msg 117 238 \$1 \, \$2 \$3;
#X obj 116 216 pack f f f;
#X obj 217 134 * 44.1;
#X obj 115 115 t f f;
#X obj 200 165 +;
#X floatatom 115 85 10 0 0 0 - - - 0;
#X obj 277 157 / 1;
#X obj 338 103 t b f;
#X floatatom 215 81 5 0 0 0 - - - 0;
#X floatatom 339 78 5 0 0 0 - - - 0;
#X text 191 238 Start \, end duration;
#X text 334 60 Speed;
#X text 217 60 Duration;
#X text 70 85 Start;
#X text 305 159 <--- End time is start and duration added;
#X text 384 80 Speed of playback;
#X obj 117 329 *~;
#X obj 115 36 inlet;
#X obj 215 32 r grainDuration;
#X obj 338 30 r grainSpeed;
#X obj 281 286 vline~;
#X msg 281 261 1 20 \, 0 20 \$1;
#X obj 351 208 f;
#X obj 369 183 - 10;
#X obj 342 185 bng 15 250 50 0 empty empty empty 17 7 0 10 #fcfcfc
#000000 #000000;
#X obj 117 361 outlet~;
#X text 266 133 Get duration in ms;
#X obj 117 286 tabread4~ grain;
#X connect 0 0 28 0;
#X connect 1 0 0 0;
#X connect 1 0 25 0;
#X connect 2 0 1 0;
#X connect 3 0 5 1;
#X connect 4 0 2 0;
#X connect 4 1 5 0;
#X connect 5 0 2 1;
#X connect 6 0 4 0;
#X connect 7 0 2 2;
#X connect 7 0 24 0;
#X connect 8 0 7 0;
#X connect 8 1 7 1;
#X connect 9 0 3 0;
#X connect 9 0 7 0;
#X connect 10 0 8 0;
#X connect 17 0 26 0;
#X connect 18 0 6 0;
#X connect 19 0 9 0;
#X connect 20 0 10 0;
#X connect 21 0 17 1;
#X connect 22 0 21 0;
#X connect 23 0 22 0;
#X connect 24 0 23 1;
#X connect 25 0 23 0;
#X connect 28 0 17 0;
