#N canvas 1027 53 701 548 12;
#X obj 103 21 notein, f 15;
#X floatatom 104 79 5 0 0 0 - - - 0;
#X floatatom 155 107 5 0 0 0 - - - 0;
#X floatatom 206 142 5 0 0 0 - - - 0;
#X text 25 78 MIDI note;
#X text 123 107 vel;
#X text 144 142 MIDI ch;
#X floatatom 135 289 5 0 0 0 - - - 0;
#X floatatom 179 311 5 0 0 0 - - - 0;
#X text 161 247 Key nr;
#X text 180 286 Key vel;
#X text 223 311 Duration;
#X obj 172 405 print;
#X obj 55 394 noteout 1;
#X obj 420 25 notein, f 18;
#X floatatom 420 58 5 0 0 0 - - - 0;
#X floatatom 503 61 5 0 0 0 - - - 0;
#X floatatom 553 62 5 0 0 0 - - - 0;
#X obj 420 106 +;
#X obj 601 23 vsl 15 128 -12 12 0 0 empty empty empty 0 -9 0 10 #fcfcfc
#000000 #000000 0 1;
#X obj 600 167 i;
#X floatatom 600 195 5 0 0 0 - - - 0;
#X floatatom 420 130 5 0 0 0 - - - 0;
#X obj 420 178 noteout;
#X msg 25 241 74;
#X msg 125 245 85;
#X msg 62 244 75;
#X msg 94 245 78;
#X obj 56 333 makenote 100 1000;
#X obj 172 373 pack f f;
#X connect 0 0 1 0;
#X connect 0 1 2 0;
#X connect 0 2 3 0;
#X connect 7 0 28 1;
#X connect 8 0 28 2;
#X connect 14 0 15 0;
#X connect 14 1 16 0;
#X connect 14 2 17 0;
#X connect 15 0 18 0;
#X connect 16 0 23 1;
#X connect 17 0 23 2;
#X connect 18 0 22 0;
#X connect 19 0 20 0;
#X connect 20 0 21 0;
#X connect 20 0 18 1;
#X connect 22 0 23 0;
#X connect 24 0 28 0;
#X connect 25 0 28 0;
#X connect 26 0 28 0;
#X connect 27 0 28 0;
#X connect 28 0 13 0;
#X connect 28 0 29 0;
#X connect 28 1 13 1;
#X connect 28 1 29 1;
#X connect 29 0 12 0;
