#N canvas 252 56 1031 851 12;
#X floatatom 249 12 5 0 0 0 - - - 0;
#X floatatom 365 13 5 0 0 0 Cold_value - - 0;
#X obj 249 42 + 10;
#X floatatom 249 81 5 0 0 0 - - - 0;
#X text 292 43 control signal +;
#X obj 587 439 pack f f f;
#X floatatom 587 397 5 0 0 0 - num1 - 0;
#X floatatom 629 398 5 0 0 0 - num2 - 0;
#X floatatom 669 398 5 0 0 0 - - - 0;
#X obj 587 464 send values;
#N canvas 137 218 436 166 example 0;
#X obj 45 19 inlet;
#X obj 45 99 outlet;
#X obj 105 21 inlet;
#X obj 44 62 + 34;
#X connect 0 0 3 0;
#X connect 2 0 3 1;
#X connect 3 0 1 0;
#X restore 368 251 pd example;
#X floatatom 368 227 5 0 0 0 - - - 0;
#X floatatom 368 280 5 0 0 0 - - - 0;
#X floatatom 434 227 5 0 0 0 - - - 0;
#N canvas 52 217 450 300 thru 0;
#X obj 78 15 inlet;
#X obj 77 101 outlet;
#X connect 0 0 1 0;
#X restore 33 270 pd thru;
#X text 637 271 abstraction;
#X obj 502 346 vsl 15 128 0 127 0 0 empty mySlider slider 0 -9 0 10
#fcfcfc #000000 #000000 0 1;
#X floatatom 502 482 5 0 0 0 - - - 0;
#X obj 46 333 loadbang;
#X msg 323 438 \; pd dsp 0;
#N canvas 222 140 1132 696 weighted_random 0;
#X obj 48 71 metro 1000;
#X obj 48 47 tgl 15 0 empty empty empty 17 7 0 10 #fcfcfc #000000 #000000
0 1;
#X obj 48 94 random 100;
#X obj 48 119 moses 10;
#X floatatom 48 148 5 0 0 0 - - - 0;
#X floatatom 101 150 5 0 0 0 - - - 0;
#X floatatom 115 45 5 0 0 0 - - - 0;
#X obj 99 174 moses 50;
#X floatatom 98 201 5 0 0 0 - - - 0;
#X floatatom 153 201 5 0 0 0 - - - 0;
#X text 76 12 weighted random sequencer;
#X text 131 118 Moses splits a number stream by a thershold;
#X text 213 162 Outlet 1: 10% Outlet 2: 40% Outlet 3: 50%;
#X connect 0 0 2 0;
#X connect 1 0 0 0;
#X connect 2 0 3 0;
#X connect 3 0 4 0;
#X connect 3 1 5 0;
#X connect 5 0 7 0;
#X connect 6 0 0 1;
#X connect 7 0 8 0;
#X connect 7 1 9 0;
#X restore 335 779 pd weighted_random;
#X text 141 362 \; (semicolon) broadcasts messages to named objects
;
#X msg 207 438 \; pd dsp 1;
#X text 203 416 Switch the audio processing on or off;
#N canvas 0 38 1298 706 random_sequencer 0;
#X obj 55 51 metro 1000;
#X obj 55 24 tgl 15 0 empty empty empty 17 7 0 10 #fcfcfc #000000 #000000
0 1;
#X floatatom 122 26 5 0 0 0 - - - 0;
#X obj 56 137 random 5;
#X floatatom 56 183 5 0 0 0 - - - 0;
#X obj 56 205 select 0 1 2 3 4;
#X obj 55 233 bng 15 250 50 0 empty empty empty 17 7 0 10 #fcfcfc #000000
#000000;
#X obj 77 234 bng 15 250 50 0 empty empty empty 17 7 0 10 #fcfcfc #000000
#000000;
#X obj 100 235 bng 15 250 50 0 empty empty empty 17 7 0 10 #fcfcfc
#000000 #000000;
#X obj 121 235 bng 15 250 50 0 empty empty empty 17 7 0 10 #fcfcfc
#000000 #000000;
#X obj 143 235 bng 15 250 50 0 empty empty empty 17 7 0 10 #fcfcfc
#000000 #000000;
#X text 68 104 Random sequencer 0-4;
#X obj 166 236 bng 15 250 50 0 empty empty empty 17 7 0 10 #fcfcfc
#000000 #000000;
#X floatatom 152 178 5 0 0 0 - - - 0;
#X text 190 206 Last outlet is the garbage outlet;
#X msg 253 109 seed 42;
#N canvas 527 589 583 265 why_42? 0;
#X text 11 36 In Douglas Adams’s popular 1979 science-fiction novel
The Hitchhiker’s Guide to the Galaxy \, towards the end of the book
\, the supercomputer Deep Thought reveals that the answer to the great
question of “life \, the universe and everything” is 42;
#X restore 344 128 pd why_42?;
#X text 342 109 a fact:;
#X connect 0 0 3 0;
#X connect 1 0 0 0;
#X connect 2 0 0 1;
#X connect 3 0 4 0;
#X connect 4 0 5 0;
#X connect 5 0 6 0;
#X connect 5 1 7 0;
#X connect 5 2 8 0;
#X connect 5 3 9 0;
#X connect 5 4 10 0;
#X connect 5 5 12 0;
#X connect 13 0 5 0;
#X connect 15 0 3 0;
#X restore 153 779 pd random_sequencer;
#N canvas 454 273 887 479 route_example 0;
#X obj 36 88 route hi hello;
#X msg 35 47 hi 45;
#X obj 39 178 print 1;
#X obj 101 181 print 2;
#X obj 169 180 print 3;
#X msg 85 28 hwta 809;
#X msg 105 49 hi 609 \, hello 34 \, what 90;
#X msg 25 135 pitch \$1;
#X text 143 88 routing inputs based on matching value;
#X text 111 126 \$1 is a replaceable argument;
#X connect 0 0 7 0;
#X connect 0 1 3 0;
#X connect 0 2 4 0;
#X connect 1 0 0 0;
#X connect 5 0 0 0;
#X connect 6 0 0 0;
#X connect 7 0 2 0;
#X restore 636 16 pd route_example;
#N canvas 72 106 802 429 cascaded_delays 0;
#X obj 38 18 bng 15 250 50 0 empty empty empty 17 7 0 10 #fcfcfc #000000
#000000;
#X obj 38 85 bng 15 250 50 0 empty empty empty 17 7 0 10 #fcfcfc #000000
#000000;
#X obj 110 86 bng 15 250 50 0 empty empty empty 17 7 0 10 #fcfcfc #000000
#000000;
#X obj 182 86 bng 15 250 50 0 empty empty empty 17 7 0 10 #fcfcfc #000000
#000000;
#X obj 256 86 bng 15 250 50 0 empty empty empty 17 7 0 10 #fcfcfc #000000
#000000;
#X obj 110 49 delay 500;
#X obj 183 49 delay 700;
#X obj 38 48 delay 100;
#X text 58 100 Cascaded delays. Outputs bangs;
#X obj 257 49 del 100;
#X connect 0 0 7 0;
#X connect 5 0 2 0;
#X connect 5 0 6 0;
#X connect 6 0 3 0;
#X connect 6 0 9 0;
#X connect 7 0 1 0;
#X connect 7 0 5 0;
#X connect 9 0 4 0;
#X restore 178 137 pd cascaded_delays;
#N canvas 555 79 688 343 toggle_to_select 0;
#X obj 61 19 tgl 15 0 empty empty empty 17 7 0 10 #fcfcfc #000000 #000000
0 1;
#X obj 60 75 bng 15 250 50 0 empty empty empty 17 7 0 10 #fcfcfc #000000
#000000;
#X obj 93 75 bng 15 250 50 0 empty empty empty 17 7 0 10 #fcfcfc #000000
#000000;
#X obj 61 46 select 0 1;
#X connect 0 0 3 0;
#X connect 3 0 1 0;
#X connect 3 1 2 0;
#X restore 365 137 pd toggle_to_select;
#N canvas 466 154 439 147 pipe 0;
#X obj 75 61 pipe 500;
#X floatatom 75 34 5 0 0 0 - - - 0;
#X floatatom 75 89 5 0 0 0 - - - 0;
#X text 144 60 Delays a value by a set time;
#X connect 0 0 2 0;
#X connect 1 0 0 0;
#X restore 37 139 pd pipe;
#N canvas 197 173 588 235 counter 0;
#X obj 43 31 tgl 15 0 empty empty empty 17 7 0 10 #fcfcfc #000000 #000000
0 1;
#X floatatom 110 27 5 0 0 0 - - - 0;
#X obj 43 79 bng 15 250 50 0 empty empty empty 17 7 0 10 #fcfcfc #000000
#000000;
#X obj 43 100 f 0;
#X obj 105 104 + 1;
#X floatatom 41 166 5 0 0 0 - - - 0;
#X msg 131 66 0;
#X text 84 142 Counter. Adds 1 per tick of the clock \, 0 resets the
counter.;
#X obj 43 51 metro 250;
#X obj 329 51 f;
#X floatatom 378 18 5 0 0 0 - - - 0;
#X obj 329 74 print;
#X obj 301 20 bng 15 250 50 0 empty empty empty 17 7 0 10 #fcfcfc #000000
#000000;
#X floatatom 331 14 5 0 0 0 - - - 0;
#X connect 0 0 8 0;
#X connect 1 0 8 1;
#X connect 2 0 3 0;
#X connect 3 0 4 0;
#X connect 3 0 5 0;
#X connect 4 0 3 1;
#X connect 6 0 3 1;
#X connect 8 0 2 0;
#X connect 9 0 11 0;
#X connect 10 0 9 1;
#X connect 12 0 9 0;
#X connect 13 0 9 0;
#X restore 34 184 pd counter;
#N canvas 0 38 499 300 audio_example 0;
#X obj 50 62 osc~;
#X obj 50 95 *~ 0.4;
#X floatatom 49 33 5 0 0 0 - - - 0;
#X obj 50 134 dac~ 1 2;
#X text 91 62 cosine oscillator;
#X text 95 32 set frequency;
#X text 107 95 Scale the signal;
#X text 121 136 Send to outputs 1 and 2;
#X text 58 179 Note the difference in patch cord thickness. Thin cords
are control signals \, thick cords are audio signals.;
#X connect 0 0 1 0;
#X connect 1 0 3 0;
#X connect 1 0 3 1;
#X connect 2 0 0 0;
#X restore 53 691 pd audio_example;
#X text 31 248 Empty subpatch to gather patch cords;
#N canvas 929 111 799 646 message_ordering 0;
#X obj 35 22 bng 15 250 50 0 empty empty Button_to_trigger 17 7 0 10
#fc0400 #0400fc #000000;
#X msg 75 109 23;
#X msg 110 110 54;
#X msg 35 109 500;
#X obj 34 175 print;
#X obj 172 31 bng 15 250 50 0 empty empty empty 17 7 0 10 #fcfcfc #000000
#000000;
#X obj 149 55 t f f f;
#X text 29 201 Message ordering/trigger;
#X text 39 233 what if re-patch the cables with different order?;
#X obj 227 368 t f b s l 0, f 12;
#X obj 227 334 bng 15 250 50 0 empty empty empty 17 7 0 10 #fcfcfc
#000000 #000000;
#X connect 0 0 1 0;
#X connect 0 0 2 0;
#X connect 0 0 3 0;
#X connect 1 0 4 0;
#X connect 2 0 4 0;
#X connect 3 0 4 0;
#X connect 5 0 6 0;
#X connect 6 0 3 0;
#X connect 6 1 1 0;
#X connect 6 2 2 0;
#X connect 10 0 9 0;
#X restore 42 21 pd message_ordering;
#X text 450 252 Subpatch example;
#N canvas 229 291 953 485 bad_example 0;
#X obj 56 78 +;
#X floatatom 56 40 5 0 0 0 - - - 0;
#X floatatom 56 117 5 0 0 0 - - - 0;
#X floatatom 134 40 5 0 0 0 - - - 0;
#X obj 134 78 +;
#X floatatom 134 117 5 0 0 0 - - - 0;
#X text 181 78 Why is the output different?;
#X connect 0 0 2 0;
#X connect 1 0 0 0;
#X connect 1 0 0 1;
#X connect 3 0 4 1;
#X connect 3 0 4 0;
#X connect 4 0 5 0;
#X restore 478 16 pd bad_example;
#X obj 601 271 gate;
#X floatatom 597 231 5 0 0 0 - - - 0;
#X obj 650 233 tgl 15 0 empty empty empty 17 7 0 10 #fcfcfc #000000
#000000 0 1;
#X text 596 208 Use it to gate control data;
#X floatatom 601 295 5 0 0 0 - - - 0;
#X text 503 572 Attack: Start from 0 \, reach 1 in \$1ms with 0ms delay
Decay: Following a \$1ms delay \, go back to 0 in \$2ms;
#N canvas 351 104 855 355 counter2 0;
#X obj 41 35 tgl 15 0 empty empty empty 17 7 0 10 #fcfcfc #000000 #000000
0 1;
#X obj 41 133 bng 15 250 50 0 empty empty empty 17 7 0 10 #fcfcfc #000000
#000000;
#X floatatom 101 31 5 0 0 0 - - - 0;
#X obj 386 31 loadbang;
#X text 351 106 click to reset;
#X obj 275 275 mod 16;
#X obj 202 215 moses 16;
#X text 118 154 part the stream \; when reach 16 \, reset;
#X obj 345 140 + 1;
#X obj 233 99 float;
#X floatatom 328 184 4 0 0 0 - - - 0;
#X msg 386 61 0;
#X floatatom 275 299 5 0 0 0 - - - 0;
#X floatatom 202 239 5 0 0 0 - - - 0;
#X obj 41 90 metro 500;
#X text 128 216 option 1:;
#X text 200 274 option 2:;
#X text 428 59 See that this is just another way of defining an argument
;
#X connect 0 0 14 0;
#X connect 1 0 9 0;
#X connect 2 0 14 1;
#X connect 3 0 11 0;
#X connect 5 0 12 0;
#X connect 6 0 13 0;
#X connect 6 1 11 0;
#X connect 8 0 9 1;
#X connect 8 0 10 0;
#X connect 9 0 8 0;
#X connect 10 0 5 0;
#X connect 10 0 6 0;
#X connect 11 0 9 1;
#X connect 14 0 1 0;
#X restore 174 183 pd counter2;
#X text 14 21 1a);
#X text 209 15 1b);
#X text 11 139 2a);
#X text 144 137 2b);
#X text 7 183 4a);
#X text 145 183 4b);
#X text 335 137 2c);
#X text 444 17 1c);
#X text 607 15 1d);
#X text 5 249 5a);
#X text 332 243 5b);
#X text 564 212 5c);
#X text 8 348 6a);
#X text 566 375 6b);
#X text 17 577 7a);
#X obj 422 607 vline~;
#N canvas 0 38 1043 568 audio_example2 0;
#X obj 50 62 osc~;
#X obj 50 134 dac~ 1 2;
#X text 91 62 cosine oscillator;
#X text 107 95 Scale the signal;
#X text 121 136 Send to outputs 1 and 2;
#X text 58 179 Note the difference in patch cord thickness. Thin cords
are control signals \, thick cords are audio signals.;
#X obj 343 63 inlet~;
#X obj 50 95 *~;
#X obj 41 17 inlet;
#X connect 0 0 7 0;
#X connect 6 0 7 1;
#X connect 7 0 1 0;
#X connect 7 0 1 1;
#X connect 8 0 0 0;
#X restore 311 709 pd audio_example2;
#X floatatom 311 681 5 0 0 0 - - - 0;
#X msg 56 563 110;
#X obj 56 536 loadbang;
#X text 23 689 7b);
#X text 265 580 7c);
#X obj 138 578 osc~ 50;
#X obj 138 648 dac~;
#X floatatom 56 600 5 0 0 0 - - - 0;
#X obj 56 633 send fq_;
#X obj 138 544 r fq_;
#N canvas 111 417 810 601 synthCV 0;
#X obj 42 164 route vca vcf vco;
#X floatatom 41 197 5 0 0 0 - - - 0;
#X floatatom 89 197 5 0 0 0 - - - 0;
#X floatatom 134 197 5 0 0 0 - - - 0;
#X msg 117 86 vcf \$1;
#X msg 29 75 vca \$1;
#X msg 264 84 vco \$1;
#X obj 28 46 unpack f f f;
#X obj 28 23 receive values;
#X connect 0 0 1 0;
#X connect 0 1 2 0;
#X connect 0 2 3 0;
#X connect 4 0 0 0;
#X connect 5 0 0 0;
#X connect 6 0 0 0;
#X connect 7 0 5 0;
#X connect 7 1 4 0;
#X connect 7 2 6 0;
#X connect 8 0 7 0;
#X restore 718 491 pd synthCV;
#X text 592 374 The subpatch "pd synthCV" has the receive of "values"
;
#X text 306 558 Simple envelope;
#X obj 205 508 vsl 15 128 0 127 0 0 empty empty empty 0 -9 0 10 #fcfcfc
#000000 #000000 0 1;
#N canvas 1119 167 308 454 sig 0;
#X obj 20 16 inlet;
#X floatatom 20 44 5 0 0 0 - - - 0;
#X obj 20 75 / 127;
#X floatatom 20 98 5 0 0 0 - - - 0;
#X obj 20 142 sig~;
#X obj 20 174 outlet~;
#X connect 0 0 1 0;
#X connect 1 0 2 0;
#X connect 2 0 3 0;
#X connect 3 0 4 0;
#X connect 4 0 5 0;
#X restore 206 660 pd sig;
#X obj 310 654 r fq_;
#X text 124 779 8b);
#X text 303 778 8c);
#X text 21 781 8a);
#N canvas 768 166 774 742 rand 0;
#X obj 43 28 tgl 15 0 empty empty empty 17 7 0 10 #fcfcfc #000000 #000000
0 1;
#X obj 43 48 metro 500;
#X msg 94 86 seed 42;
#X floatatom 112 129 5 0 0 0 - - - 0;
#X text 155 129 range;
#X floatatom 61 251 5 0 0 0 - - - 0;
#N canvas 855 548 485 226 seed? 0;
#X text 29 68 A pseudorandom number generator's number sequence is
completely determined by the seed: thus \, if a pseudorandom number
generator is reinitialized with the same seed \, it will produce the
same sequence of numbers. (Wikipedia);
#X restore 228 216 pd seed?;
#X obj 32 289 print random:;
#X obj 43 160 random 666;
#X msg 158 87 seed 13;
#X obj 79 184 moses 400;
#X floatatom 137 220 5 0 0 0 - - - 0;
#X connect 0 0 1 0;
#X connect 1 0 8 0;
#X connect 2 0 8 0;
#X connect 3 0 8 1;
#X connect 8 0 5 0;
#X connect 8 0 7 0;
#X connect 8 0 10 0;
#X connect 9 0 8 0;
#X connect 10 1 11 0;
#X restore 52 780 pd rand;
#X listbox 833 67 20 0 0 0 - - - 0;
#X text 794 17 1e);
#N canvas 92 130 724 577 listz 0;
#X obj 81 29 inlet;
#X obj 81 226 outlet;
#X msg 41 113 MCT;
#X msg 92 118 4001;
#X msg 262 130 2022;
#X obj 81 183 pack s f s f;
#X msg 141 117 symbol Fall;
#X obj 81 60 t b b b b;
#X connect 0 0 7 0;
#X connect 2 0 5 0;
#X connect 3 0 5 1;
#X connect 4 0 5 3;
#X connect 5 0 1 0;
#X connect 6 0 5 2;
#X connect 7 0 2 0;
#X connect 7 1 3 0;
#X connect 7 2 6 0;
#X connect 7 3 4 0;
#X restore 834 39 pd listz;
#X obj 835 15 bng 15 250 50 0 empty empty empty 17 7 0 10 #fcfcfc #000000
#000000;
#X msg 46 360 \; mySlider 65 \; num1 63 \; num2 53;
#X listbox 692 441 20 0 0 0 - - - 0;
#X floatatom 162 513 5 0 0 0 - - - 0;
#X obj 138 615 *~;
#X msg 310 581 0 \, 0.3 1000 0 \, 0 250 1000;
#X text 828 790 MCT4001 Pd Session 1 29 August 2022, f 20;
#X connect 0 0 2 0;
#X connect 1 0 2 1;
#X connect 2 0 3 0;
#X connect 5 0 9 0;
#X connect 5 0 84 0;
#X connect 6 0 5 0;
#X connect 7 0 5 1;
#X connect 8 0 5 2;
#X connect 10 0 12 0;
#X connect 11 0 10 0;
#X connect 13 0 10 1;
#X connect 16 0 17 0;
#X connect 18 0 83 0;
#X connect 35 0 39 0;
#X connect 36 0 35 0;
#X connect 37 0 35 1;
#X connect 57 0 58 1;
#X connect 59 0 58 0;
#X connect 60 0 66 0;
#X connect 61 0 60 0;
#X connect 64 0 86 0;
#X connect 66 0 67 0;
#X connect 68 0 64 0;
#X connect 72 0 73 0;
#X connect 73 0 86 1;
#X connect 74 0 59 0;
#X connect 81 0 79 0;
#X connect 82 0 81 0;
#X connect 85 0 64 0;
#X connect 86 0 65 0;
#X connect 87 0 57 0;
