#N canvas 259 49 1065 931 12;
#X floatatom 258 28 5 0 0 0 - - - 0;
#X floatatom 374 29 5 0 0 0 Cold_value - - 0;
#X obj 258 58 + 10;
#X floatatom 258 97 5 0 0 0 - - - 0;
#X text 301 59 control signal +;
#X obj 656 508 pack f f f;
#X floatatom 656 466 5 0 0 0 - num1 - 0;
#X floatatom 698 467 5 0 0 0 - num2 - 0;
#X floatatom 738 467 5 0 0 0 - - - 0;
#X obj 656 533 send values;
#N canvas 0 38 592 406 synthLogic 0;
#X obj 42 164 route vca vcf vco;
#X floatatom 41 197 5 0 0 0 - - - 0;
#X floatatom 89 197 5 0 0 0 - - - 0;
#X floatatom 134 197 5 0 0 0 - - - 0;
#X msg 117 86 vcf \$1;
#X msg 29 75 vca \$1;
#X msg 264 84 vco \$1;
#X obj 28 46 unpack f f f;
#X obj 28 23 receive values;
#X connect 0 0 1 0;
#X connect 0 1 2 0;
#X connect 0 2 3 0;
#X connect 4 0 0 0;
#X connect 5 0 0 0;
#X connect 6 0 0 0;
#X connect 7 0 5 0;
#X connect 7 1 4 0;
#X connect 7 2 6 0;
#X connect 8 0 7 0;
#X restore 752 533 pd synthLogic;
#N canvas 325 -942 450 300 example 0;
#X obj 45 19 inlet;
#X obj 45 99 outlet;
#X obj 105 21 inlet;
#X obj 44 62 + 34;
#X connect 0 0 3 0;
#X connect 2 0 3 1;
#X connect 3 0 1 0;
#X restore 351 277 pd example;
#X floatatom 351 253 5 0 0 0 - - - 0;
#X floatatom 351 306 5 0 0 0 - - - 0;
#X floatatom 417 253 5 0 0 0 - - - 0;
#N canvas 288 38 450 300 thru 0;
#X obj 78 15 inlet;
#X obj 77 101 outlet;
#X connect 0 0 1 0;
#X restore 45 266 pd thru;
#X text 648 307 abstraction;
#X obj 538 406 vsl 15 128 0 127 0 0 empty slider slider 0 -9 0 10 #fcfcfc
#000000 #000000 0 1;
#X floatatom 538 542 5 0 0 0 - - - 0;
#X obj 82 393 loadbang;
#X msg 282 528 \; pd dsp 0;
#N canvas 0 38 524 319 weighted_random 0;
#X obj 48 71 metro 1000;
#X obj 48 47 tgl 15 0 empty empty empty 17 7 0 10 #fcfcfc #000000 #000000
0 1;
#X obj 48 94 random 100;
#X obj 48 119 moses 10;
#X floatatom 48 148 5 0 0 0 - - - 0;
#X floatatom 101 150 5 0 0 0 - - - 0;
#X floatatom 115 45 5 0 0 0 - - - 0;
#X obj 99 174 moses 50;
#X floatatom 98 201 5 0 0 0 - - - 0;
#X floatatom 153 201 5 0 0 0 - - - 0;
#X text 76 12 weighted random sequencer;
#X text 131 118 Moses splits a number stream by a thershold;
#X text 213 162 Outlet 1: 10% Outlet 2: 40% Outlet 3: 50%;
#X connect 0 0 2 0;
#X connect 1 0 0 0;
#X connect 2 0 3 0;
#X connect 3 0 4 0;
#X connect 3 1 5 0;
#X connect 5 0 7 0;
#X connect 6 0 0 1;
#X connect 7 0 8 0;
#X connect 7 1 9 0;
#X restore 273 829 pd weighted_random;
#X text 177 422 \; (semicolon) broadcasts messages to named objects
;
#X msg 82 420 \; slider 65 \; num1 67 \; num2 43;
#X msg 166 528 \; pd dsp 1;
#X text 162 506 Switch the audio processing on or off;
#N canvas 0 38 484 328 random_sequencer 0;
#X obj 55 51 metro 1000;
#X obj 55 24 tgl 15 0 empty empty empty 17 7 0 10 #fcfcfc #000000 #000000
0 1;
#X floatatom 122 26 5 0 0 0 - - - 0;
#X obj 55 75 random 5;
#X floatatom 55 98 5 0 0 0 - - - 0;
#X obj 55 120 select 0 1 2 3 4;
#X obj 54 148 bng 15 250 50 0 empty empty empty 17 7 0 10 #fcfcfc #000000
#000000;
#X obj 76 149 bng 15 250 50 0 empty empty empty 17 7 0 10 #fcfcfc #000000
#000000;
#X obj 99 150 bng 15 250 50 0 empty empty empty 17 7 0 10 #fcfcfc #000000
#000000;
#X obj 120 150 bng 15 250 50 0 empty empty empty 17 7 0 10 #fcfcfc
#000000 #000000;
#X obj 142 150 bng 15 250 50 0 empty empty empty 17 7 0 10 #fcfcfc
#000000 #000000;
#X text 121 72 Random sequencer 0-4;
#X obj 172 152 bng 15 250 50 0 empty empty empty 17 7 0 10 #fcfcfc
#000000 #000000;
#X floatatom 151 93 5 0 0 0 - - - 0;
#X text 189 121 Last outlet is the garbage outlet;
#X connect 0 0 3 0;
#X connect 1 0 0 0;
#X connect 2 0 0 1;
#X connect 3 0 4 0;
#X connect 4 0 5 0;
#X connect 5 0 6 0;
#X connect 5 1 7 0;
#X connect 5 2 8 0;
#X connect 5 3 9 0;
#X connect 5 4 10 0;
#X connect 5 5 12 0;
#X connect 13 0 5 0;
#X restore 58 827 pd random_sequencer;
#N canvas 617 393 561 344 route_example 0;
#X obj 36 88 route hi hello;
#X msg 35 47 hi 45;
#X obj 39 178 print 1;
#X obj 101 181 print 2;
#X obj 169 180 print 3;
#X msg 85 28 hwta 809;
#X msg 105 49 hi 609 \, hello 34 \, what 90;
#X msg 38 126 pitch \$1;
#X text 143 88 routing inputs based on matching value;
#X text 111 126 \$1 is a replaceable argument;
#X connect 0 0 7 0;
#X connect 0 1 3 0;
#X connect 0 2 4 0;
#X connect 1 0 0 0;
#X connect 5 0 0 0;
#X connect 6 0 0 0;
#X connect 7 0 2 0;
#X restore 645 32 pd route_example;
#X text 647 431 The subpatch "pd synthLogic" has the receive of "values"
;
#N canvas 0 38 419 229 cascaded_delays 0;
#X obj 38 18 bng 15 250 50 0 empty empty empty 17 7 0 10 #fcfcfc #000000
#000000;
#X obj 38 85 bng 15 250 50 0 empty empty empty 17 7 0 10 #fcfcfc #000000
#000000;
#X obj 110 86 bng 15 250 50 0 empty empty empty 17 7 0 10 #fcfcfc #000000
#000000;
#X obj 182 86 bng 15 250 50 0 empty empty empty 17 7 0 10 #fcfcfc #000000
#000000;
#X obj 258 86 bng 15 250 50 0 empty empty empty 17 7 0 10 #fcfcfc #000000
#000000;
#X obj 110 49 delay 500;
#X obj 183 49 delay 700;
#X obj 38 48 delay 100;
#X text 58 100 Cascaded delays. Outputs bangs;
#X obj 257 49 del 100;
#X connect 0 0 7 0;
#X connect 5 0 2 0;
#X connect 5 0 6 0;
#X connect 6 0 3 0;
#X connect 6 0 9 0;
#X connect 7 0 1 0;
#X connect 7 0 5 0;
#X connect 9 0 4 0;
#X restore 187 153 pd cascaded_delays;
#N canvas 0 38 259 175 toggle_to_select 0;
#X obj 61 26 tgl 15 0 empty empty empty 17 7 0 10 #fcfcfc #000000 #000000
0 1;
#X obj 60 75 bng 15 250 50 0 empty empty empty 17 7 0 10 #fcfcfc #000000
#000000;
#X obj 93 75 bng 15 250 50 0 empty empty empty 17 7 0 10 #fcfcfc #000000
#000000;
#X obj 61 46 select 0 1;
#X connect 0 0 3 0;
#X connect 3 0 1 0;
#X connect 3 1 2 0;
#X restore 374 153 pd toggle_to_select;
#N canvas 0 38 445 198 pipe 0;
#X obj 75 61 pipe 500;
#X floatatom 75 34 5 0 0 0 - - - 0;
#X floatatom 75 89 5 0 0 0 - - - 0;
#X text 144 60 Delays a value by a set time;
#X connect 0 0 2 0;
#X connect 1 0 0 0;
#X restore 46 155 pd pipe;
#N canvas 0 38 450 300 counter 1;
#X obj 43 31 tgl 15 0 empty empty empty 17 7 0 10 #fcfcfc #000000 #000000
0 1;
#X obj 43 51 metro 1000;
#X floatatom 110 27 5 0 0 0 - - - 0;
#X obj 43 79 bng 15 250 50 0 empty empty empty 17 7 0 10 #fcfcfc #000000
#000000;
#X obj 43 100 f 0;
#X obj 105 104 + 1;
#X floatatom 41 166 5 0 0 0 - - - 0;
#X msg 131 66 0;
#X text 84 142 Counter. Adds 1 per tick of the clock \, 0 resets the
counter.;
#X connect 0 0 1 0;
#X connect 1 0 3 0;
#X connect 2 0 1 1;
#X connect 3 0 4 0;
#X connect 4 0 5 0;
#X connect 4 0 6 0;
#X connect 5 0 4 1;
#X connect 7 0 4 1;
#X restore 43 200 pd counter;
#N canvas 0 38 450 300 audio_example 0;
#X obj 50 62 osc~;
#X obj 50 95 *~ 0.4;
#X floatatom 49 33 5 0 0 0 - - - 0;
#X obj 50 134 dac~ 1 2;
#X text 91 62 cosine oscillator;
#X text 95 32 set frequency;
#X text 107 95 Scale the signal;
#X text 121 136 Send to outputs 1 and 2;
#X text 58 179 Note the difference in patch cord thickness. Thin cords
are control signals \, thick cords are audio signals.;
#X connect 0 0 1 0;
#X connect 1 0 3 0;
#X connect 1 0 3 1;
#X connect 2 0 0 0;
#X restore 60 632 pd audio_example;
#X text 42 291 Empty subpatch to gather patch cords;
#N canvas 0 38 275 286 message_ordering 0;
#X obj 35 22 bng 15 250 50 0 empty empty Button_to_trigger 17 7 0 10
#fc0400 #0400fc #000000;
#X msg 75 109 23;
#X msg 110 110 54;
#X msg 35 109 500;
#X obj 34 175 print;
#X obj 65 50 bng 15 250 50 0 empty empty empty 17 7 0 10 #fcfcfc #000000
#000000;
#X obj 66 76 t f f f;
#X text 29 201 Message ordering/trigger;
#X connect 0 0 1 0;
#X connect 0 0 2 0;
#X connect 0 0 3 0;
#X connect 1 0 4 0;
#X connect 2 0 4 0;
#X connect 3 0 4 0;
#X connect 5 0 6 0;
#X connect 6 0 3 0;
#X connect 6 1 1 0;
#X connect 6 2 2 0;
#X restore 48 27 pd message_ordering;
#X text 433 278 Subpatch example;
#N canvas 0 38 479 229 bad_example 0;
#X obj 56 78 +;
#X floatatom 56 40 5 0 0 0 - - - 0;
#X floatatom 56 117 5 0 0 0 - - - 0;
#X floatatom 134 40 5 0 0 0 - - - 0;
#X obj 134 78 +;
#X floatatom 134 117 5 0 0 0 - - - 0;
#X text 181 78 Why is the output different?;
#X connect 0 0 2 0;
#X connect 1 0 0 0;
#X connect 1 0 0 1;
#X connect 3 0 4 1;
#X connect 3 0 4 0;
#X connect 4 0 5 0;
#X restore 487 32 pd bad_example;
#X text 540 877 Patches from MCT4001 workshop 1 \, 29 August 2022;
#X obj 612 307 gate;
#X floatatom 608 267 5 0 0 0 - - - 0;
#X obj 661 269 tgl 15 0 empty empty empty 17 7 0 10 #fcfcfc #000000
#000000 0 1;
#X text 607 244 Use it to gate control data;
#X floatatom 612 331 5 0 0 0 - - - 0;
#X text 493 620 Attack: Start from 0 \, reach 1 in \$1ms with 0ms delay
Decay: Following a \$1ms delay \, go back to 0 in \$2ms;
#X msg 319 632 0 \, 1 100 0 \, 0 250 100;
#N canvas 353 415 518 351 counter2 0;
#X obj 41 35 tgl 15 0 empty empty empty 17 7 0 10 #fcfcfc #000000 #000000
0 1;
#X obj 41 133 bng 15 250 50 0 empty empty empty 17 7 0 10 #fcfcfc #000000
#000000;
#X floatatom 101 31 5 0 0 0 - - - 0;
#X obj 41 90 metro 125;
#X obj 315 75 loadbang;
#X text 351 106 click to reset;
#X obj 215 229 mod 16;
#X obj 152 182 moses 16;
#X text 286 195 part the stream \; when reach 16 \, reset;
#X obj 263 140 + 1;
#X obj 206 141 float;
#X floatatom 263 165 4 0 0 0 - - - 0;
#X msg 315 106 0;
#X floatatom 215 253 5 0 0 0 - - - 0;
#X connect 0 0 3 0;
#X connect 1 0 10 0;
#X connect 2 0 3 1;
#X connect 3 0 1 0;
#X connect 4 0 12 0;
#X connect 6 0 13 0;
#X connect 7 1 12 0;
#X connect 9 0 10 1;
#X connect 9 0 11 0;
#X connect 10 0 9 0;
#X connect 11 0 7 0;
#X connect 11 0 6 0;
#X connect 12 0 10 1;
#X restore 183 199 pd counter2;
#X text 20 28 1a);
#X text 218 31 1b);
#X text 20 155 2a);
#X text 153 153 2b);
#X text 16 199 4a);
#X text 154 199 4b);
#X text 344 153 2c);
#X text 453 33 1c);
#X text 616 31 1d);
#X text 14 265 5a);
#X text 315 269 5b);
#X text 563 280 5c);
#X text 14 406 6a);
#X text 608 460 6b);
#X text 26 632 7a);
#X text 270 630 7b);
#X obj 427 657 vline~;
#N canvas 0 38 450 300 audio_example2 0;
#X obj 50 62 osc~;
#X obj 50 134 dac~ 1 2;
#X text 91 62 cosine oscillator;
#X text 107 95 Scale the signal;
#X text 121 136 Send to outputs 1 and 2;
#X text 58 179 Note the difference in patch cord thickness. Thin cords
are control signals \, thick cords are audio signals.;
#X obj 343 63 inlet~;
#X obj 50 95 *~;
#X obj 41 17 inlet;
#X connect 0 0 7 0;
#X connect 6 0 7 1;
#X connect 7 0 1 0;
#X connect 7 0 1 1;
#X connect 8 0 0 0;
#X restore 316 759 pd audio_example2;
#X floatatom 316 731 5 0 0 0 - - - 0;
#X msg 317 704 110;
#X obj 315 664 loadbang;
#X text 29 827 8a);
#X text 241 828 8b);
#X connect 0 0 2 0;
#X connect 1 0 2 1;
#X connect 2 0 3 0;
#X connect 5 0 9 0;
#X connect 6 0 5 0;
#X connect 7 0 5 1;
#X connect 8 0 5 2;
#X connect 11 0 13 0;
#X connect 12 0 11 0;
#X connect 14 0 11 1;
#X connect 17 0 18 0;
#X connect 19 0 23 0;
#X connect 39 0 43 0;
#X connect 40 0 39 0;
#X connect 41 0 39 1;
#X connect 45 0 63 0;
#X connect 63 0 64 1;
#X connect 65 0 64 0;
#X connect 66 0 65 0;
#X connect 67 0 66 0;
