#N canvas 142 265 541 364 10;
#X text 27 150 signal-out;
#X obj 29 129 outlet~;
#X obj 29 49 noise~;
#X text 14 7 pink~;
#X text 65 8 pink-noise-generator with -3 dB per oktave;
#X obj 29 88 biquad~ 1.83221 -0.836851 0.271264 -0.456311 0.18969;
#X obj 29 108 biquad~ 0.273097 0.087865 0.505803 0.171365 -0.03813
;
#X obj 29 68 biquad~ 1.98893 -0.988954 1.00554 -1.9889 0.983444;
#X text 166 195 IEM KUG;
#X text 150 183 musil;
#X text 180 183 @;
#X text 186 183 iem.at;
#X text 101 172 (c) Thomas Musil 2000 - 2005;
#X text 149 205 Graz \, Austria;
#N canvas 63 101 798 332 biquad? 0;
#X text 84 98 Digital filters employ this method of delaying a wave
by one sample and then adding it to the original wave to effect cancellation.
The “biquad~” object can be used to adjust this by hand. It executes
the following differential equation: y(n) = ff1 * w(n) + ff2 * w(n
– 1) + ff3 * w(n – 2) with w[n] = x[n] + fb1 * x[n – 1] + fb2
* x[n – 2]. ‘n’ is the sample position and ff1 \, ff2 \, ff3
\, fb1 \, and fb2 are freely defined factors. In Pd \, “biquad~”
then requires five arguments for ff1 \, ff2 \, ff3 \, fb1 \, and fb2.
The syntax is as fol- lows: “biquad~” [fb1] [fb2] [ff1] [ff2] [ff3].
, f 109;
#X text 589 248 Kreidler p.110-111;
#X restore 365 179 pd biquad?;
#X connect 2 0 7 0;
#X connect 5 0 6 0;
#X connect 6 0 1 0;
#X connect 7 0 5 0;
