#N canvas 133 292 547 132 12;
#X floatatom 45 37 5 0 0 0 - - - 0;
#X obj 45 60 s val;
#X floatatom 293 45 5 0 0 0 - - - 0;
#X obj 293 68 s \$0-local_val;
#N canvas 0 25 305 307 global 0;
#X floatatom 107 122 10 0 0 0 - - - 0;
#X obj 106 68 r val;
#X connect 1 0 0 0;
#X coords 0 -1 1 1 85 60 1 100 100;
#X restore 167 32 pd global;
#N canvas 0 25 305 307 local 0;
#X floatatom 107 122 10 0 0 0 - - - 0;
#X obj 106 68 r \$0-local_val;
#X connect 1 0 0 0;
#X coords 0 -1 1 1 85 60 1 100 100;
#X restore 404 30 pd local;
#X obj 102 35 r val;
#X floatatom 102 59 5 0 0 0 - - - 0;
#X connect 0 0 1 0;
#X connect 2 0 3 0;
#X connect 6 0 7 0;
