#N canvas 88 269 491 504 12;
#X floatatom 24 127 5 0 0 0 - - - 0;
#X obj 71 186 * 2;
#X obj 131 186 * 3;
#X obj 191 186 * 4;
#X obj 251 186 * 5;
#X obj 308 187 * 6;
#X obj 361 187 * 7;
#X obj 417 186 * 8;
#X floatatom 71 210 5 0 0 0 - - - 0;
#X floatatom 131 210 5 0 0 0 - - - 0;
#X floatatom 191 210 5 0 0 0 - - - 0;
#X floatatom 251 210 5 0 0 0 - - - 0;
#X floatatom 308 211 5 0 0 0 - - - 0;
#X floatatom 361 211 5 0 0 0 - - - 0;
#X floatatom 417 210 5 0 0 0 - - - 0;
#X obj 71 233 osc~;
#X obj 24 233 osc~;
#X obj 131 233 osc~;
#X obj 191 233 osc~;
#X obj 251 233 osc~;
#X obj 308 234 osc~;
#X obj 361 234 osc~;
#X obj 417 233 osc~;
#X obj 24 257 *~ 1;
#X obj 71 257 *~ 0.7;
#X obj 131 257 *~ 0.5;
#X obj 191 257 *~ 0.4;
#X obj 251 257 *~ 0.3;
#X obj 308 258 *~ 0.3;
#X obj 361 258 *~ 0.2;
#X obj 417 257 *~ 0.1;
#X obj 22 463 outlet~;
#X obj 22 380 *~ 0.4;
#X obj 86 379 / 127;
#X obj 86 403 sig~;
#X obj 23 435 *~;
#X obj 216 348 inlet volume;
#X obj 332 354 inlet viz;
#X obj 332 378 tgl 15 0 empty empty empty 17 7 0 10 #fcfcfc #000000
#000000 0 1;
#X obj 332 398 metro 50;
#X obj 210 470 tabwrite~ addViz;
#X obj 80 40 r key_fq;
#X obj 24 9 inlet in_on-off;
#X obj 52 78 gate;
#X obj 210 438 *~ 0.6;
#X floatatom 251 406 5 0 0 0 - - - 0;
#X text 70 128 Fundamental FQ;
#X connect 0 0 1 0;
#X connect 0 0 2 0;
#X connect 0 0 3 0;
#X connect 0 0 4 0;
#X connect 0 0 5 1;
#X connect 0 0 6 0;
#X connect 0 0 7 0;
#X connect 0 0 16 0;
#X connect 1 0 8 0;
#X connect 2 0 9 0;
#X connect 3 0 10 0;
#X connect 4 0 11 0;
#X connect 5 0 12 0;
#X connect 6 0 13 0;
#X connect 7 0 14 0;
#X connect 8 0 15 0;
#X connect 9 0 17 0;
#X connect 10 0 18 0;
#X connect 11 0 19 0;
#X connect 12 0 20 0;
#X connect 13 0 21 0;
#X connect 14 0 22 0;
#X connect 15 0 24 0;
#X connect 16 0 23 0;
#X connect 17 0 25 0;
#X connect 18 0 26 0;
#X connect 19 0 27 0;
#X connect 20 0 28 0;
#X connect 21 0 29 0;
#X connect 22 0 30 0;
#X connect 23 0 32 0;
#X connect 24 0 32 0;
#X connect 25 0 32 0;
#X connect 26 0 32 0;
#X connect 27 0 32 0;
#X connect 28 0 32 0;
#X connect 29 0 32 0;
#X connect 30 0 32 0;
#X connect 32 0 35 0;
#X connect 32 0 44 0;
#X connect 33 0 34 0;
#X connect 34 0 35 1;
#X connect 35 0 31 0;
#X connect 36 0 33 0;
#X connect 37 0 38 0;
#X connect 38 0 39 0;
#X connect 39 0 40 0;
#X connect 41 0 43 0;
#X connect 42 0 43 1;
#X connect 42 0 34 0;
#X connect 43 0 0 0;
#X connect 44 0 40 0;
#X connect 45 0 44 1;
