#N canvas 752 395 500 279 12;
#X obj 65 28 inlet;
#X obj 65 52 mtof;
#X obj 63 110 phasor~;
#X obj 63 134 bp~ 500 10;
#X obj 65 209 *~;
#X obj 167 53 t b b;
#X obj 166 105 pack 1 250;
#X obj 332 139 pack 0 750;
#X obj 331 113 delay 250;
#X text 244 106 attack;
#X text 412 138 release;
#X obj 279 22 r A;
#X obj 441 62 r R;
#X obj 279 46 t f f;
#X obj 166 173 vline~;
#X obj 65 233 outlet~;
#X connect 0 0 1 0;
#X connect 1 0 2 0;
#X connect 1 0 5 0;
#X connect 2 0 3 0;
#X connect 3 0 4 0;
#X connect 4 0 15 0;
#X connect 5 0 6 0;
#X connect 5 1 8 0;
#X connect 6 0 14 0;
#X connect 7 0 14 0;
#X connect 8 0 7 0;
#X connect 11 0 13 0;
#X connect 12 0 7 1;
#X connect 13 0 6 1;
#X connect 13 1 8 1;
#X connect 14 0 4 1;
