#N canvas 327 215 766 489 12;
#X obj 53 27 key;
#X msg 53 117 36;
#X msg 89 117 37;
#X msg 126 117 38;
#X msg 162 116 39;
#X msg 199 116 40;
#X msg 237 115 41;
#X msg 274 115 42;
#X msg 310 114 43;
#X msg 347 114 44;
#X msg 385 113 45;
#X msg 422 113 46;
#X msg 458 112 47;
#X msg 495 112 48;
#X obj 53 60 sel 97 119 115 101 100 102 116 103 121 104 117 106 107
113, f 74;
#X msg 12 104 35;
#X text 115 29 Simple Key-interaction;
#X obj 53 213 outlet;
#X msg 197 297 36;
#X msg 233 297 37;
#X msg 270 297 38;
#X msg 306 296 39;
#X msg 343 296 40;
#X msg 381 295 41;
#X msg 418 295 42;
#X msg 454 294 43;
#X msg 491 294 44;
#X msg 529 293 45;
#X msg 566 293 46;
#X msg 602 292 47;
#X msg 639 292 48;
#X obj 197 240 sel 97 119 115 101 100 102 116 103 121 104 117 106 107
113, f 74;
#X msg 156 284 35;
#X obj 197 393 outlet;
#X obj 197 210 keyup;
#X msg 155 507 48;
#X msg 185 507 50;
#X msg 215 507 52;
#X msg 245 507 53;
#X msg 274 507 55;
#X msg 301 507 57;
#X msg 328 507 59;
#X msg 356 507 60;
#X msg 385 506 62;
#X msg 416 506 64;
#X msg 445 506 64;
#X msg 474 506 67;
#X msg 503 506 69;
#X msg 525 507 70;
#X connect 0 0 14 0;
#X connect 1 0 17 0;
#X connect 2 0 17 0;
#X connect 3 0 17 0;
#X connect 4 0 17 0;
#X connect 5 0 17 0;
#X connect 6 0 17 0;
#X connect 7 0 17 0;
#X connect 8 0 17 0;
#X connect 9 0 17 0;
#X connect 10 0 17 0;
#X connect 11 0 17 0;
#X connect 12 0 17 0;
#X connect 13 0 17 0;
#X connect 14 0 1 0;
#X connect 14 1 2 0;
#X connect 14 2 3 0;
#X connect 14 3 4 0;
#X connect 14 4 5 0;
#X connect 14 5 6 0;
#X connect 14 6 7 0;
#X connect 14 7 8 0;
#X connect 14 8 9 0;
#X connect 14 9 10 0;
#X connect 14 10 11 0;
#X connect 14 11 12 0;
#X connect 14 12 13 0;
#X connect 14 13 15 0;
#X connect 15 0 17 0;
#X connect 18 0 33 0;
#X connect 19 0 33 0;
#X connect 20 0 33 0;
#X connect 21 0 33 0;
#X connect 22 0 33 0;
#X connect 23 0 33 0;
#X connect 24 0 33 0;
#X connect 25 0 33 0;
#X connect 26 0 33 0;
#X connect 27 0 33 0;
#X connect 28 0 33 0;
#X connect 29 0 33 0;
#X connect 30 0 33 0;
#X connect 31 0 18 0;
#X connect 31 1 19 0;
#X connect 31 2 20 0;
#X connect 31 3 21 0;
#X connect 31 4 22 0;
#X connect 31 5 23 0;
#X connect 31 6 24 0;
#X connect 31 7 25 0;
#X connect 31 8 26 0;
#X connect 31 9 27 0;
#X connect 31 10 28 0;
#X connect 31 11 29 0;
#X connect 31 12 30 0;
#X connect 31 13 32 0;
#X connect 32 0 33 0;
#X connect 34 0 31 0;
