#N canvas 743 289 305 377 12;
#X obj 37 22 loadbang;
#X obj 37 44 \$1;
#X obj 37 66 mtof;
#X obj 37 88 phasor~;
#X obj 37 114 pow~ 1.5;
#X obj 183 23 inlet;
#X obj 185 60 / 128;
#X msg 185 82 \$1 10;
#X obj 185 104 line~;
#X msg 227 82 0;
#X obj 227 60 loadbang;
#X obj 185 126 pow~ 3;
#X obj 96 237 *~;
#X obj 96 259 *~ 0.2;
#X obj 96 281 lop~ 500;
#X obj 96 303 hip~ 1;
#X obj 96 325 outlet~;
#X obj 37 142 -~ 0.5;
#X obj 37 172 *~ 2;
#X text 102 115 curve;
#X text 83 143 to bipolar;
#X text 71 172 amp;
#X connect 0 0 1 0;
#X connect 1 0 2 0;
#X connect 2 0 3 0;
#X connect 3 0 4 0;
#X connect 4 0 17 0;
#X connect 5 0 6 0;
#X connect 6 0 7 0;
#X connect 7 0 8 0;
#X connect 8 0 11 0;
#X connect 9 0 8 0;
#X connect 10 0 9 0;
#X connect 11 0 12 1;
#X connect 12 0 13 0;
#X connect 13 0 14 0;
#X connect 14 0 15 0;
#X connect 15 0 16 0;
#X connect 17 0 18 0;
#X connect 18 0 12 0;
