#N canvas 330 44 806 972 12;
#X obj 225 19 loadbang;
#X msg 225 47 1;
#X obj 225 71 metro 121;
#X obj 37 276 osc~;
#X obj 25 180 * 0.1;
#X obj 25 204 + 0.1;
#X obj 72 350 *~;
#X obj 127 230 random 1000;
#X obj 127 253 + 1;
#X obj 122 406 +~;
#X obj 217 289 + 1;
#X obj 146 443 osc~;
#X obj 374 925 dac~, f 6;
#X obj 126 305 line~;
#X obj 214 343 line~;
#X obj 400 578 *~;
#X obj 431 410 * 0.001;
#X obj 431 458 line~;
#X obj 83 647 delwrite~ webBuff 1000;
#X obj 209 516 *~;
#X obj 259 414 * 0.001;
#X obj 259 462 line~;
#X obj 259 390 random 500;
#X obj 346 720 *~;
#X obj 410 718 *~;
#X obj 610 616 lop~ 1;
#X obj 554 532 sig~ 1;
#X obj 541 588 -~;
#X obj 611 589 sig~;
#X obj 330 771 *~ 0.5;
#X obj 416 766 *~ 0.5;
#X obj 217 266 random 500;
#X obj 383 672 *~;
#X obj 431 386 random 1000;
#X obj 557 440 * 0.001;
#X obj 557 488 line~;
#X obj 557 416 random 500;
#X obj 373 172 + 5;
#X obj 373 148 random 2000;
#X obj 614 293 line~;
#X obj 614 317 vd~ webBuff 250;
#X obj 585 158 random 249;
#X obj 585 182 + 1;
#X obj 614 341 *~ 0.9;
#X obj 300 803 hip~ 50;
#X obj 300 827 hip~ 50;
#X obj 300 851 lop~ 3500;
#X obj 300 875 lop~ 3500;
#X obj 437 800 hip~ 50;
#X obj 437 824 hip~ 50;
#X obj 437 848 lop~ 3500;
#X obj 437 872 lop~ 3500;
#X obj 557 464 pack f 50;
#X obj 431 434 pack f 50;
#X obj 259 438 pack f 50;
#X obj 214 319 pack f 50;
#X obj 126 281 pack f 100;
#X obj 711 451 random 100;
#X obj 721 484 * 0.01;
#X obj 681 240 +;
#X obj 683 167 + 49;
#X obj 683 143 random 700;
#X obj 614 265 pack f 666;
#X obj 24 150 random 100;
#X obj 31 94 r \$0-modFq;
#X connect 0 0 1 0;
#X connect 1 0 2 0;
#X connect 2 0 7 0;
#X connect 2 0 22 0;
#X connect 2 0 31 0;
#X connect 2 0 33 0;
#X connect 2 0 36 0;
#X connect 2 0 38 0;
#X connect 2 0 41 0;
#X connect 2 0 57 0;
#X connect 2 0 61 0;
#X connect 2 0 63 0;
#X connect 3 0 6 0;
#X connect 4 0 5 0;
#X connect 5 0 3 0;
#X connect 6 0 9 0;
#X connect 7 0 8 0;
#X connect 8 0 56 0;
#X connect 9 0 11 0;
#X connect 10 0 55 0;
#X connect 11 0 18 0;
#X connect 11 0 19 0;
#X connect 13 0 6 1;
#X connect 14 0 9 1;
#X connect 15 0 18 0;
#X connect 15 0 32 0;
#X connect 16 0 53 0;
#X connect 17 0 15 1;
#X connect 19 0 23 0;
#X connect 20 0 54 0;
#X connect 21 0 19 1;
#X connect 22 0 20 0;
#X connect 23 0 29 0;
#X connect 24 0 30 0;
#X connect 25 0 23 1;
#X connect 25 0 27 1;
#X connect 26 0 27 0;
#X connect 27 0 24 1;
#X connect 28 0 25 0;
#X connect 29 0 44 0;
#X connect 30 0 48 0;
#X connect 31 0 10 0;
#X connect 32 0 24 0;
#X connect 33 0 16 0;
#X connect 34 0 52 0;
#X connect 35 0 32 1;
#X connect 36 0 34 0;
#X connect 37 0 2 1;
#X connect 38 0 37 0;
#X connect 39 0 40 0;
#X connect 40 0 43 0;
#X connect 41 0 42 0;
#X connect 42 0 59 0;
#X connect 42 0 62 0;
#X connect 43 0 15 0;
#X connect 44 0 45 0;
#X connect 45 0 46 0;
#X connect 46 0 47 0;
#X connect 47 0 12 0;
#X connect 48 0 49 0;
#X connect 49 0 50 0;
#X connect 50 0 51 0;
#X connect 51 0 12 1;
#X connect 52 0 35 0;
#X connect 53 0 17 0;
#X connect 54 0 21 0;
#X connect 55 0 14 0;
#X connect 56 0 13 0;
#X connect 57 0 58 0;
#X connect 58 0 28 0;
#X connect 59 0 62 1;
#X connect 60 0 59 1;
#X connect 61 0 60 0;
#X connect 62 0 39 0;
#X connect 63 0 4 0;
#X connect 64 0 63 1;
