#N canvas 895 102 739 1033 12;
#X obj 225 23 loadbang;
#X msg 225 47 1;
#X obj 225 71 metro 121;
#X obj 37 276 osc~;
#X obj 24 150 random 100;
#X obj 25 180 * 0.1;
#X obj 25 204 + 0.1;
#X obj 72 350 *~;
#X obj 127 230 random 1000;
#X obj 127 253 + 1;
#X obj 122 406 +~;
#X obj 217 289 + 1;
#X obj 146 443 osc~;
#X obj 360 954 dac~;
#X obj 126 305 line~;
#X obj 126 281 pack 0 100;
#X obj 214 343 line~;
#X obj 400 578 *~;
#X obj 397 419 * 0.001;
#X obj 397 467 line~;
#X obj 83 647 delwrite~ webBuff 1000;
#X obj 311 531 delread~ webBuff 250;
#X obj 214 319 pack 0 50;
#X obj 397 443 pack 0 50;
#X obj 209 516 *~;
#X obj 259 414 * 0.001;
#X obj 259 462 line~;
#X obj 259 390 random 500;
#X obj 259 438 pack 0 50;
#X obj 346 720 *~;
#X obj 410 718 *~;
#X obj 571 607 lop~ 1;
#X obj 507 516 sig~ 1;
#X obj 494 572 -~;
#X obj 572 580 sig~;
#X obj 630 522 / 127;
#X obj 346 781 *~ 0.5;
#X obj 442 775 *~ 0.5;
#X obj 620 489 random 127;
#X obj 217 266 random 500;
#X obj 440 885 lop~ 2500;
#X obj 287 889 lop~ 2500;
#X obj 383 672 *~;
#X obj 397 395 random 1000;
#X obj 510 424 * 0.001;
#X obj 510 472 line~;
#X obj 510 448 pack 0 50;
#X obj 510 400 random 500;
#X obj 374 158 + 5;
#X obj 374 134 random 2000;
#X connect 0 0 1 0;
#X connect 1 0 2 0;
#X connect 2 0 4 0;
#X connect 2 0 8 0;
#X connect 2 0 27 0;
#X connect 2 0 38 0;
#X connect 2 0 39 0;
#X connect 2 0 43 0;
#X connect 2 0 47 0;
#X connect 2 0 49 0;
#X connect 3 0 7 0;
#X connect 4 0 5 0;
#X connect 5 0 6 0;
#X connect 6 0 3 0;
#X connect 7 0 10 0;
#X connect 8 0 9 0;
#X connect 9 0 15 0;
#X connect 10 0 12 0;
#X connect 11 0 22 0;
#X connect 12 0 20 0;
#X connect 12 0 24 0;
#X connect 14 0 7 1;
#X connect 15 0 14 0;
#X connect 16 0 10 1;
#X connect 17 0 20 0;
#X connect 17 0 42 0;
#X connect 18 0 23 0;
#X connect 19 0 17 1;
#X connect 21 0 17 0;
#X connect 22 0 16 0;
#X connect 23 0 19 0;
#X connect 24 0 29 0;
#X connect 25 0 28 0;
#X connect 26 0 24 1;
#X connect 27 0 25 0;
#X connect 28 0 26 0;
#X connect 29 0 36 0;
#X connect 30 0 37 0;
#X connect 31 0 29 1;
#X connect 31 0 33 1;
#X connect 32 0 33 0;
#X connect 33 0 30 1;
#X connect 34 0 31 0;
#X connect 35 0 34 0;
#X connect 36 0 41 0;
#X connect 37 0 40 0;
#X connect 38 0 35 0;
#X connect 39 0 11 0;
#X connect 40 0 13 1;
#X connect 41 0 13 0;
#X connect 42 0 30 0;
#X connect 43 0 18 0;
#X connect 44 0 46 0;
#X connect 45 0 42 1;
#X connect 46 0 45 0;
#X connect 47 0 44 0;
#X connect 48 0 2 1;
#X connect 49 0 48 0;
